<svg version="1.1" id="Ebene_1" xmlns="http://www.w3.org/2000/svg" xmlns:xlink="http://www.w3.org/1999/xlink" x="0px" y="0px"
	 width="535px" height="191.422px" viewBox="0 0 535 191.422" enable-background="new 0 0 535 191.422" xml:space="preserve">
<g>
	<path d="M34.665,167.629v-7.353c0-1.376-0.31-2.358-0.928-2.946c-0.619-0.587-1.771-0.881-3.458-0.881h-6.241v11.18h-5.692v-28.552
		h14.21c1.293,0,2.467,0.208,3.521,0.623c1.054,0.416,1.961,0.989,2.72,1.72c0.759,0.731,1.342,1.606,1.75,2.623
		c0.407,1.019,0.611,2.115,0.611,3.29c0,1.548-0.358,2.917-1.075,4.106s-1.75,2.028-3.099,2.516
		c1.236,0.401,2.115,1.018,2.635,1.849c0.52,0.832,0.78,2.079,0.78,3.741v8.084H34.665z M24.039,144.021v7.611h7.337
		c1.574,0,2.684-0.358,3.331-1.075c0.646-0.716,0.97-1.619,0.97-2.709c0-1.118-0.316-2.035-0.949-2.752
		c-0.633-0.716-1.68-1.075-3.142-1.075H24.039z"/>
	<path d="M51.869,158.513c0.084,1.606,0.541,2.881,1.37,3.827c0.829,0.946,1.918,1.419,3.268,1.419c0.899,0,1.693-0.207,2.382-0.623
		c0.688-0.416,1.131-0.996,1.328-1.742h5.65c-0.647,2.18-1.771,3.856-3.374,5.031c-1.602,1.176-3.514,1.763-5.734,1.763
		c-6.915,0-10.373-3.841-10.373-11.523c0-1.634,0.225-3.11,0.675-4.429c0.449-1.318,1.103-2.451,1.961-3.397
		c0.857-0.946,1.904-1.67,3.141-2.172c1.237-0.501,2.657-0.752,4.259-0.752c3.205,0,5.629,1.047,7.274,3.139
		c1.644,2.093,2.466,5.246,2.466,9.46H51.869z M60.513,154.987c-0.028-0.774-0.162-1.455-0.401-2.043
		c-0.239-0.587-0.555-1.075-0.949-1.462c-0.394-0.387-0.843-0.673-1.349-0.86c-0.506-0.186-1.026-0.279-1.56-0.279
		c-1.097,0-2.045,0.408-2.846,1.226c-0.801,0.817-1.259,1.957-1.371,3.419H60.513z"/>
	<path d="M71.348,143.936v-5.203h5.482v5.203H71.348z M71.348,167.629v-21.156h5.482v21.156H71.348z"/>
	<path d="M100.358,159.975c-0.141,1.233-0.485,2.352-1.033,3.354c-0.548,1.004-1.244,1.863-2.087,2.58s-1.807,1.275-2.889,1.677
		c-1.083,0.401-2.256,0.602-3.521,0.602c-1.406,0-2.692-0.236-3.858-0.709c-1.167-0.473-2.171-1.189-3.015-2.15
		c-0.844-0.96-1.497-2.149-1.961-3.568s-0.696-3.075-0.696-4.967s0.232-3.526,0.696-4.902s1.117-2.5,1.961-3.375
		c0.843-0.874,1.862-1.526,3.057-1.957c1.195-0.43,2.523-0.645,3.985-0.645c1.349,0,2.579,0.187,3.689,0.559
		c1.11,0.373,2.08,0.918,2.91,1.634c0.829,0.718,1.482,1.577,1.96,2.58c0.478,1.004,0.759,2.122,0.843,3.354h-5.523
		c-0.141-1.089-0.569-1.941-1.286-2.559c-0.717-0.616-1.596-0.925-2.635-0.925c-0.59,0-1.139,0.101-1.645,0.302
		c-0.506,0.2-0.949,0.537-1.328,1.01c-0.38,0.474-0.682,1.104-0.907,1.893c-0.226,0.788-0.337,1.756-0.337,2.902
		c0,2.322,0.407,4.042,1.223,5.16c0.815,1.118,1.757,1.677,2.825,1.677c1.068,0,1.982-0.301,2.741-0.903
		c0.759-0.602,1.195-1.476,1.307-2.623H100.358z"/>
	<path d="M118.405,167.629v-13.115c0-1.604-0.274-2.701-0.822-3.289c-0.548-0.588-1.455-0.882-2.72-0.882
		c-0.675,0-1.28,0.137-1.813,0.408c-0.534,0.273-0.984,0.646-1.349,1.118c-0.366,0.474-0.64,1.019-0.822,1.634
		c-0.183,0.617-0.274,1.284-0.274,2v12.126h-5.482v-28.896h5.482v10.492c0.196-0.458,0.499-0.896,0.906-1.312
		c0.407-0.415,0.878-0.767,1.413-1.053c0.534-0.287,1.124-0.517,1.771-0.688c0.646-0.172,1.321-0.258,2.024-0.258
		c2.136,0,3.872,0.595,5.208,1.784c1.335,1.19,2.003,2.846,2.003,4.967v14.964H118.405z"/>
	<path d="M128.651,177.647v-31.175h5.271l0.042,2.58c1.265-2.092,3.19-3.139,5.777-3.139c1.292,0,2.494,0.258,3.605,0.773
		c1.11,0.517,2.059,1.262,2.846,2.236s1.406,2.165,1.855,3.569c0.449,1.404,0.675,2.996,0.675,4.772c0,1.606-0.19,3.075-0.569,4.408
		s-0.935,2.487-1.666,3.461c-0.731,0.975-1.624,1.728-2.678,2.258s-2.256,0.795-3.605,0.795c-2.559,0-4.611-1.103-6.156-3.311
		v12.771H128.651z M138.434,163.415c3.148,0,4.723-2.179,4.723-6.536c0-1.892-0.436-3.433-1.307-4.622
		c-0.872-1.189-1.997-1.785-3.374-1.785c-1.321,0-2.424,0.56-3.31,1.677c-0.885,1.118-1.328,2.58-1.328,4.387
		C133.837,161.122,135.369,163.415,138.434,163.415z"/>
	<path d="M153.149,143.936v-5.203h5.482v5.203H153.149z M153.149,167.629v-21.156h5.482v21.156H153.149z"/>
	<path d="M167.654,158.513c0.084,1.606,0.541,2.881,1.37,3.827c0.829,0.946,1.918,1.419,3.268,1.419
		c0.899,0,1.693-0.207,2.382-0.623c0.688-0.416,1.131-0.996,1.328-1.742h5.65c-0.647,2.18-1.771,3.856-3.374,5.031
		c-1.602,1.176-3.514,1.763-5.734,1.763c-6.915,0-10.373-3.841-10.373-11.523c0-1.634,0.225-3.11,0.675-4.429
		c0.449-1.318,1.103-2.451,1.961-3.397c0.857-0.946,1.904-1.67,3.141-2.172c1.237-0.501,2.657-0.752,4.259-0.752
		c3.205,0,5.629,1.047,7.274,3.139c1.644,2.093,2.466,5.246,2.466,9.46H167.654z M176.298,154.987
		c-0.028-0.774-0.162-1.455-0.401-2.043c-0.239-0.587-0.555-1.075-0.949-1.462c-0.394-0.387-0.843-0.673-1.349-0.86
		c-0.506-0.186-1.026-0.279-1.56-0.279c-1.097,0-2.045,0.408-2.846,1.226c-0.801,0.817-1.259,1.957-1.371,3.419H176.298z"/>
	<path d="M197.085,153.697h5.102v6.02c0,1.118-0.162,2.187-0.485,3.203c-0.324,1.019-0.83,1.921-1.518,2.71
		c-0.689,0.788-1.56,1.412-2.614,1.87s-2.312,0.688-3.774,0.688c-1.518,0-2.812-0.229-3.879-0.688
		c-1.068-0.458-1.947-1.075-2.635-1.849c-0.689-0.774-1.188-1.678-1.497-2.709c-0.31-1.032-0.464-2.122-0.464-3.269v-18.92h5.397
		v5.719h11.469v3.956h-11.469v8.687c0,1.348,0.246,2.386,0.738,3.117c0.492,0.731,1.3,1.097,2.425,1.097
		c1.096,0,1.904-0.358,2.424-1.075c0.52-0.716,0.78-1.734,0.78-3.053V153.697z"/>
	<path d="M219.18,152.88c-0.141-0.975-0.5-1.684-1.075-2.129c-0.577-0.443-1.455-0.666-2.636-0.666
		c-1.125,0-1.975,0.137-2.551,0.408c-0.577,0.273-0.864,0.738-0.864,1.397c0,0.574,0.288,1.032,0.864,1.376
		c0.576,0.345,1.413,0.674,2.509,0.989c1.799,0.516,3.316,0.953,4.554,1.312c1.237,0.358,2.228,0.781,2.973,1.269
		c0.744,0.487,1.279,1.097,1.602,1.827c0.323,0.731,0.485,1.714,0.485,2.946c0,1.892-0.773,3.461-2.319,4.708
		c-1.546,1.247-3.837,1.87-6.873,1.87c-1.491,0-2.84-0.172-4.048-0.516c-1.209-0.344-2.242-0.839-3.099-1.483
		c-0.858-0.646-1.518-1.419-1.982-2.322c-0.463-0.902-0.71-1.913-0.738-3.031h5.65c0,1.004,0.386,1.777,1.16,2.322
		c0.772,0.545,1.777,0.816,3.015,0.816c1.04,0,1.933-0.164,2.678-0.494c0.745-0.329,1.117-0.839,1.117-1.526
		c0-0.774-0.274-1.333-0.822-1.677c-0.548-0.345-1.385-0.646-2.509-0.903c-2.024-0.458-3.655-0.938-4.891-1.44
		c-1.237-0.501-2.2-1.054-2.889-1.655c-0.689-0.603-1.153-1.262-1.391-1.979c-0.239-0.716-0.358-1.519-0.358-2.408
		c0-0.802,0.161-1.562,0.485-2.278c0.323-0.717,0.836-1.348,1.539-1.893c0.702-0.544,1.616-0.981,2.741-1.312
		c1.124-0.329,2.501-0.494,4.132-0.494c2.979,0,5.158,0.616,6.536,1.849c1.377,1.233,2.136,2.939,2.277,5.117H219.18z"/>
	<path d="M246.756,159.975c-0.141,1.233-0.485,2.352-1.033,3.354c-0.548,1.004-1.244,1.863-2.087,2.58s-1.807,1.275-2.889,1.677
		c-1.083,0.401-2.256,0.602-3.521,0.602c-1.406,0-2.692-0.236-3.858-0.709c-1.167-0.473-2.171-1.189-3.015-2.15
		c-0.844-0.96-1.497-2.149-1.961-3.568s-0.696-3.075-0.696-4.967s0.232-3.526,0.696-4.902s1.117-2.5,1.961-3.375
		c0.843-0.874,1.862-1.526,3.057-1.957c1.195-0.43,2.523-0.645,3.985-0.645c1.349,0,2.579,0.187,3.689,0.559
		c1.11,0.373,2.08,0.918,2.91,1.634c0.829,0.718,1.482,1.577,1.96,2.58c0.478,1.004,0.759,2.122,0.843,3.354h-5.523
		c-0.141-1.089-0.569-1.941-1.286-2.559c-0.717-0.616-1.596-0.925-2.635-0.925c-0.59,0-1.139,0.101-1.645,0.302
		c-0.506,0.2-0.949,0.537-1.328,1.01c-0.38,0.474-0.682,1.104-0.907,1.893c-0.226,0.788-0.337,1.756-0.337,2.902
		c0,2.322,0.407,4.042,1.223,5.16c0.815,1.118,1.757,1.677,2.825,1.677c1.068,0,1.982-0.301,2.741-0.903
		c0.759-0.602,1.195-1.476,1.307-2.623H246.756z"/>
	<path d="M264.803,167.629v-13.115c0-1.604-0.274-2.701-0.822-3.289c-0.548-0.588-1.455-0.882-2.72-0.882
		c-0.675,0-1.28,0.137-1.813,0.408c-0.534,0.273-0.984,0.646-1.349,1.118c-0.366,0.474-0.64,1.019-0.822,1.634
		c-0.183,0.617-0.274,1.284-0.274,2v12.126h-5.482v-28.896h5.482v10.492c0.196-0.458,0.499-0.896,0.906-1.312
		c0.407-0.415,0.878-0.767,1.413-1.053c0.534-0.287,1.124-0.517,1.771-0.688c0.646-0.172,1.321-0.258,2.024-0.258
		c2.136,0,3.872,0.595,5.208,1.784c1.335,1.19,2.003,2.846,2.003,4.967v14.964H264.803z"/>
	<path d="M288.374,152.88c-0.141-0.975-0.5-1.684-1.075-2.129c-0.577-0.443-1.455-0.666-2.636-0.666
		c-1.125,0-1.975,0.137-2.551,0.408c-0.577,0.273-0.864,0.738-0.864,1.397c0,0.574,0.288,1.032,0.864,1.376
		c0.576,0.345,1.413,0.674,2.509,0.989c1.799,0.516,3.316,0.953,4.554,1.312c1.237,0.358,2.228,0.781,2.973,1.269
		c0.744,0.487,1.279,1.097,1.602,1.827c0.323,0.731,0.485,1.714,0.485,2.946c0,1.892-0.773,3.461-2.319,4.708
		c-1.546,1.247-3.837,1.87-6.873,1.87c-1.491,0-2.84-0.172-4.048-0.516c-1.209-0.344-2.242-0.839-3.099-1.483
		c-0.858-0.646-1.518-1.419-1.982-2.322c-0.463-0.902-0.71-1.913-0.738-3.031h5.65c0,1.004,0.386,1.777,1.16,2.322
		c0.772,0.545,1.777,0.816,3.015,0.816c1.04,0,1.933-0.164,2.678-0.494c0.745-0.329,1.117-0.839,1.117-1.526
		c0-0.774-0.274-1.333-0.822-1.677c-0.548-0.345-1.385-0.646-2.509-0.903c-2.024-0.458-3.655-0.938-4.891-1.44
		c-1.237-0.501-2.2-1.054-2.889-1.655c-0.689-0.603-1.153-1.262-1.391-1.979c-0.239-0.716-0.358-1.519-0.358-2.408
		c0-0.802,0.161-1.562,0.485-2.278c0.323-0.717,0.836-1.348,1.539-1.893c0.702-0.544,1.616-0.981,2.741-1.312
		c1.124-0.329,2.501-0.494,4.132-0.494c2.979,0,5.158,0.616,6.536,1.849c1.377,1.233,2.136,2.939,2.277,5.117H288.374z"/>
	<path d="M310.721,153.697h5.103v6.02c0,1.118-0.162,2.187-0.485,3.203c-0.323,1.019-0.829,1.921-1.518,2.71
		c-0.689,0.788-1.561,1.412-2.614,1.87c-1.055,0.458-2.312,0.688-3.774,0.688c-1.518,0-2.811-0.229-3.879-0.688
		s-1.947-1.075-2.636-1.849c-0.688-0.774-1.188-1.678-1.496-2.709c-0.31-1.032-0.464-2.122-0.464-3.269v-18.92h5.396v5.719h11.47
		v3.956h-11.47v8.687c0,1.348,0.246,2.386,0.738,3.117c0.491,0.731,1.3,1.097,2.425,1.097c1.096,0,1.904-0.358,2.425-1.075
		c0.52-0.716,0.779-1.734,0.779-3.053V153.697z"/>
	<path d="M319.492,167.629v-21.156h5.144v2.537c0.449-0.716,0.921-1.275,1.413-1.677c0.491-0.401,0.997-0.71,1.518-0.925
		s1.047-0.351,1.581-0.408s1.082-0.086,1.645-0.086h0.717v5.719c-0.506-0.086-1.012-0.129-1.518-0.129
		c-3.346,0-5.018,1.706-5.018,5.117v11.008H319.492z"/>
	<path d="M346.688,167.629c-0.168-0.544-0.281-1.175-0.337-1.892c-0.646,0.745-1.504,1.34-2.572,1.784s-2.305,0.666-3.71,0.666
		c-2.39,0-4.14-0.537-5.25-1.612c-1.111-1.075-1.666-2.473-1.666-4.192c0-1.519,0.239-2.73,0.717-3.634
		c0.478-0.902,1.139-1.612,1.982-2.128c0.843-0.517,1.848-0.896,3.015-1.14c1.166-0.243,2.438-0.466,3.816-0.667
		c1.377-0.2,2.305-0.465,2.782-0.795c0.478-0.329,0.717-0.867,0.717-1.612c0-0.688-0.315-1.226-0.948-1.613
		c-0.633-0.387-1.483-0.58-2.551-0.58c-1.266,0-2.172,0.287-2.72,0.86c-0.549,0.573-0.894,1.333-1.033,2.278h-5.103
		c0.028-1.089,0.204-2.092,0.527-3.01c0.322-0.917,0.843-1.705,1.56-2.365c0.718-0.659,1.651-1.167,2.805-1.526
		c1.152-0.357,2.558-0.537,4.217-0.537c1.63,0,3.015,0.187,4.153,0.559c1.138,0.373,2.052,0.91,2.74,1.612
		c0.688,0.703,1.188,1.577,1.497,2.623c0.31,1.047,0.464,2.229,0.464,3.548v13.373H346.688z M346.309,157.266
		c-0.281,0.287-0.689,0.517-1.223,0.688c-0.534,0.172-1.308,0.358-2.319,0.559c-1.575,0.316-2.656,0.717-3.247,1.204
		c-0.59,0.488-0.886,1.19-0.886,2.107c0,1.576,0.886,2.364,2.657,2.364c0.702,0,1.355-0.121,1.96-0.365
		c0.604-0.243,1.124-0.573,1.561-0.989c0.436-0.415,0.787-0.902,1.055-1.462c0.267-0.559,0.4-1.153,0.4-1.784L346.309,157.266z"/>
	<path d="M363.766,163.501c0.196,0.029,0.394,0.051,0.59,0.064c0.196,0.015,0.394,0.021,0.591,0.021
		c1.603,0,2.867-0.451,3.795-1.354s1.392-2.057,1.392-3.462c0-0.945-0.147-1.741-0.443-2.386c-0.295-0.646-0.702-1.161-1.223-1.549
		c-0.521-0.387-1.152-0.673-1.897-0.859s-1.567-0.294-2.467-0.322v-3.526c0.871-0.028,1.581-0.136,2.13-0.322
		c0.548-0.187,0.983-0.437,1.307-0.753c0.323-0.314,0.549-0.688,0.675-1.118c0.127-0.43,0.189-0.902,0.189-1.419
		c0-1.347-0.365-2.285-1.096-2.816c-0.731-0.53-1.589-0.795-2.572-0.795c-1.012,0-1.876,0.286-2.594,0.859
		c-0.717,0.574-1.075,1.491-1.075,2.752v21.113h-5.396v-21.414c0-1.146,0.189-2.199,0.569-3.16c0.379-0.96,0.955-1.785,1.729-2.473
		c0.772-0.688,1.735-1.218,2.889-1.591c1.152-0.372,2.515-0.56,4.09-0.56c1.546,0,2.881,0.188,4.006,0.56
		c1.124,0.373,2.059,0.889,2.804,1.548c0.744,0.659,1.293,1.447,1.645,2.365c0.352,0.917,0.527,1.921,0.527,3.01
		c0,0.803-0.078,1.491-0.232,2.063c-0.154,0.574-0.365,1.062-0.632,1.462c-0.268,0.402-0.569,0.746-0.907,1.032
		c-0.337,0.287-0.688,0.545-1.054,0.774c0.899,0.401,1.637,0.867,2.214,1.397c0.575,0.53,1.025,1.097,1.349,1.698
		c0.323,0.603,0.549,1.255,0.675,1.957c0.127,0.702,0.19,1.426,0.19,2.171c0,1.52-0.219,2.874-0.654,4.063
		c-0.436,1.19-1.062,2.208-1.876,3.053c-0.815,0.847-1.8,1.491-2.952,1.936s-2.445,0.666-3.879,0.666
		c-1.068,0-1.87-0.058-2.403-0.172V163.501z"/>
	<path d="M386.197,158.513c0.084,1.606,0.541,2.881,1.37,3.827s1.919,1.419,3.268,1.419c0.899,0,1.693-0.207,2.383-0.623
		c0.688-0.416,1.131-0.996,1.328-1.742h5.65c-0.647,2.18-1.771,3.856-3.373,5.031c-1.603,1.176-3.515,1.763-5.735,1.763
		c-6.915,0-10.372-3.841-10.372-11.523c0-1.634,0.225-3.11,0.675-4.429c0.449-1.318,1.103-2.451,1.96-3.397s1.904-1.67,3.142-2.172
		c1.236-0.501,2.656-0.752,4.259-0.752c3.205,0,5.629,1.047,7.273,3.139c1.645,2.093,2.467,5.246,2.467,9.46H386.197z
		 M394.841,154.987c-0.028-0.774-0.162-1.455-0.4-2.043c-0.239-0.587-0.556-1.075-0.948-1.462c-0.395-0.387-0.844-0.673-1.35-0.86
		c-0.506-0.186-1.026-0.279-1.561-0.279c-1.096,0-2.045,0.408-2.846,1.226c-0.802,0.817-1.259,1.957-1.37,3.419H394.841z"/>
	<path d="M417.399,167.629v-19.737h-5.734v-3.87c1.208,0,2.22-0.1,3.036-0.301c0.814-0.2,1.482-0.509,2.002-0.924
		c0.521-0.416,0.914-0.932,1.181-1.549c0.268-0.616,0.443-1.34,0.527-2.171h4.47v28.552H417.399z"/>
	<path d="M434.14,150.902c1.181,0,2.143-0.108,2.888-0.323s1.321-0.501,1.729-0.859c0.407-0.358,0.688-0.774,0.843-1.247
		c0.154-0.474,0.232-0.968,0.232-1.483c0-1.434-0.289-2.522-0.864-3.269c-0.577-0.745-1.497-1.118-2.762-1.118
		c-1.069,0-1.955,0.409-2.657,1.226c-0.703,0.817-1.054,1.972-1.054,3.462h-5.103c0-1.376,0.218-2.623,0.654-3.741
		c0.435-1.118,1.054-2.078,1.854-2.881c0.802-0.803,1.757-1.426,2.867-1.87s2.326-0.667,3.647-0.667
		c1.209,0,2.341,0.187,3.395,0.559c1.055,0.373,1.975,0.903,2.762,1.592c0.787,0.688,1.405,1.512,1.855,2.472
		c0.449,0.961,0.675,2.015,0.675,3.161c0,1.29-0.274,2.516-0.822,3.677c-0.548,1.16-1.37,2.071-2.467,2.73
		c1.35,0.573,2.383,1.44,3.1,2.602c0.717,1.16,1.075,2.645,1.075,4.45c0,1.434-0.239,2.724-0.717,3.87
		c-0.479,1.146-1.153,2.114-2.024,2.902c-0.871,0.789-1.912,1.397-3.12,1.827c-1.209,0.431-2.544,0.646-4.006,0.646
		c-2.924,0-5.187-0.832-6.789-2.494c-1.602-1.662-2.403-3.956-2.403-6.88h5.271c0,1.663,0.351,2.874,1.054,3.633
		c0.702,0.761,1.743,1.14,3.12,1.14c1.152,0,2.108-0.408,2.867-1.226c0.76-0.816,1.139-1.984,1.139-3.504
		c0-1.662-0.471-2.823-1.412-3.483c-0.942-0.659-2.552-0.989-4.828-0.989V150.902z"/>
	<path d="M463.739,158.513c0.084,1.606,0.541,2.881,1.37,3.827s1.919,1.419,3.268,1.419c0.899,0,1.693-0.207,2.383-0.623
		c0.688-0.416,1.131-0.996,1.328-1.742h5.65c-0.647,2.18-1.771,3.856-3.373,5.031c-1.603,1.176-3.515,1.763-5.735,1.763
		c-6.915,0-10.372-3.841-10.372-11.523c0-1.634,0.225-3.11,0.675-4.429c0.449-1.318,1.103-2.451,1.96-3.397s1.904-1.67,3.142-2.172
		c1.236-0.501,2.656-0.752,4.259-0.752c3.205,0,5.629,1.047,7.273,3.139c1.645,2.093,2.467,5.246,2.467,9.46H463.739z
		 M472.383,154.987c-0.028-0.774-0.162-1.455-0.4-2.043c-0.239-0.587-0.556-1.075-0.948-1.462c-0.395-0.387-0.844-0.673-1.35-0.86
		c-0.506-0.186-1.026-0.279-1.561-0.279c-1.096,0-2.045,0.408-2.846,1.226c-0.802,0.817-1.259,1.957-1.37,3.419H472.383z"/>
	<path d="M502.151,167.629l-0.126-2.838c-0.675,1.204-1.758,2.144-3.247,2.816c-1.49,0.673-3.205,1.011-5.145,1.011
		s-3.689-0.424-5.249-1.269c-1.561-0.846-2.896-1.979-4.006-3.397c-1.111-1.419-1.961-3.053-2.552-4.901
		c-0.59-1.85-0.885-3.763-0.885-5.741c0-2.092,0.295-4.063,0.885-5.912c0.591-1.849,1.462-3.462,2.614-4.838
		s2.586-2.457,4.302-3.246c1.714-0.788,3.71-1.183,5.987-1.183c1.658,0,3.211,0.244,4.659,0.731c1.447,0.487,2.713,1.16,3.795,2.021
		s1.953,1.886,2.614,3.074c0.66,1.19,1.047,2.502,1.16,3.935h-5.903c-0.085-0.659-0.31-1.282-0.675-1.87
		c-0.366-0.587-0.83-1.097-1.392-1.526c-0.562-0.431-1.217-0.774-1.961-1.032c-0.745-0.258-1.512-0.387-2.298-0.387
		c-2.361,0-4.252,0.896-5.672,2.688c-1.419,1.792-2.129,4.394-2.129,7.805c0,1.176,0.147,2.357,0.442,3.547
		c0.296,1.19,0.76,2.265,1.392,3.226c0.633,0.96,1.44,1.741,2.425,2.343c0.983,0.603,2.15,0.903,3.5,0.903
		c0.955,0,1.848-0.172,2.678-0.516c0.828-0.345,1.553-0.817,2.171-1.419c0.618-0.603,1.104-1.297,1.455-2.086
		c0.351-0.788,0.527-1.627,0.527-2.516h-6.199v-4.772h11.681v15.351H502.151z"/>
</g>
<line fill="none" stroke="#000000" stroke-width="3" stroke-miterlimit="10" x1="18.332" y1="129.629" x2="507.001" y2="129.629"/>
<g>
	<path d="M19.017,120.246V18.654h74.664v17.748H39.672v21.726h49.725v17.901H39.672v26.163h56.457v18.055H19.017z"/>
	<path d="M101.331,35.942V17.43h19.89v18.513H101.331z M101.331,120.246V44.97h19.89v75.276H101.331z"/>
	<path d="M178.44,120.246V74.651c0-5.814-0.97-9.739-2.907-11.781c-1.939-2.039-5.255-3.06-9.945-3.06
		c-10.303,0-15.453,5.764-15.453,17.289v43.146h-19.89V44.97h18.972v11.016c2.345-4.284,5.455-7.521,9.333-9.716
		c3.875-2.192,8.874-3.29,14.994-3.29c3.569,0,6.885,0.536,9.945,1.606c3.06,1.071,5.685,2.678,7.879,4.82
		c2.192,2.142,3.925,4.769,5.202,7.879c1.274,3.113,1.912,6.708,1.912,10.787v52.173H178.44z"/>
	<path d="M267.638,120.246V74.651h-39.627v45.595h-21.267V18.654h21.267v38.25h39.627v-38.25h21.42v101.592H267.638z"/>
	<path d="M344.136,120.246c-0.611-1.938-1.02-4.182-1.223-6.732c-2.349,2.653-5.458,4.77-9.333,6.35
		c-3.878,1.58-8.365,2.371-13.465,2.371c-8.67,0-15.02-1.912-19.048-5.737c-4.03-3.825-6.044-8.798-6.044-14.917
		c0-5.406,0.865-9.716,2.602-12.93c1.732-3.213,4.131-5.737,7.19-7.573s6.706-3.187,10.94-4.055
		c4.23-0.865,8.848-1.657,13.846-2.372c4.996-0.712,8.362-1.656,10.098-2.83c1.734-1.171,2.601-3.084,2.601-5.738
		c0-2.448-1.146-4.36-3.441-5.737c-2.296-1.377-5.382-2.065-9.257-2.065c-4.59,0-7.879,1.021-9.868,3.06
		c-1.989,2.042-3.239,4.743-3.749,8.109h-18.513c0.101-3.875,0.739-7.444,1.913-10.71c1.171-3.263,3.06-6.067,5.66-8.415
		c2.602-2.345,5.991-4.155,10.175-5.432c4.181-1.274,9.28-1.913,15.3-1.913c5.914,0,10.939,0.665,15.071,1.989
		c4.131,1.327,7.443,3.239,9.945,5.737c2.498,2.5,4.307,5.611,5.43,9.333c1.121,3.725,1.684,7.932,1.684,12.623v47.583H344.136z
		 M342.759,83.373c-1.021,1.021-2.499,1.836-4.437,2.448c-1.938,0.612-4.742,1.277-8.414,1.989
		c-5.715,1.124-9.64,2.551-11.781,4.284c-2.143,1.735-3.213,4.234-3.213,7.497c0,5.61,3.213,8.415,9.639,8.415
		c2.549,0,4.92-0.434,7.114-1.301c2.192-0.865,4.079-2.039,5.661-3.52c1.58-1.477,2.854-3.213,3.825-5.201
		c0.969-1.989,1.453-4.105,1.453-6.35L342.759,83.373z"/>
	<path d="M420.33,120.246v-10.558c-5.103,8.364-12.905,12.546-23.409,12.546c-3.775,0-7.218-0.664-10.328-1.988
		c-3.112-1.324-5.79-3.213-8.032-5.662c-2.245-2.447-4.004-5.354-5.278-8.721c-1.276-3.365-1.913-7.139-1.913-11.322V44.97h19.891
		v46.512c0,9.386,4.231,14.076,12.699,14.076c5.099,0,8.95-1.606,11.551-4.819c2.602-3.213,3.901-7.318,3.901-12.316V44.97h19.737
		v75.276H420.33z"/>
	<path d="M493.157,67.767c-0.511-3.672-1.836-6.247-3.978-7.727c-2.142-1.478-5.508-2.218-10.098-2.218
		c-3.775,0-6.683,0.485-8.722,1.453c-2.041,0.971-3.06,2.577-3.06,4.82c0,2.245,1.019,3.954,3.06,5.125
		c2.039,1.174,5.1,2.321,9.181,3.442c4.283,1.224,8.362,2.321,12.239,3.29c3.876,0.971,7.292,2.015,10.251,3.136
		c3.979,1.633,7.038,3.852,9.181,6.656c2.142,2.807,3.213,6.655,3.213,11.551c0,7.856-2.78,13.977-8.339,18.361
		c-5.561,4.387-13.746,6.578-24.557,6.578c-11.628,0-20.528-2.447-26.698-7.344c-6.173-4.896-9.359-11.169-9.562-18.818h20.502
		c0,3.57,1.377,6.324,4.131,8.262c2.754,1.938,6.579,2.906,11.476,2.906c3.569,0,6.679-0.586,9.333-1.76
		c2.65-1.171,3.978-3.186,3.978-6.043c0-2.65-1.2-4.537-3.596-5.661c-2.397-1.121-5.228-2.089-8.491-2.907
		c-6.325-1.529-11.425-2.906-15.3-4.131c-3.878-1.224-7.141-2.701-9.792-4.437c-3.572-2.243-6.044-4.793-7.421-7.65
		c-1.377-2.854-2.065-5.967-2.065-9.333c0-3.161,0.56-6.12,1.684-8.874c1.121-2.754,2.957-5.125,5.508-7.115
		c2.548-1.989,5.838-3.543,9.868-4.667c4.028-1.121,8.898-1.683,14.611-1.683c10.913,0,18.946,2.092,24.098,6.273
		c5.149,4.184,7.98,10.354,8.491,18.513H493.157z"/>
</g>
</svg>
