<svg enable-background="new 0 0 535 191.422" height="191.422" viewBox="0 0 535 191.422" width="535" xmlns="http://www.w3.org/2000/svg"><path d="m34.665 167.629v-7.353c0-1.376-.31-2.358-.928-2.946-.619-.587-1.771-.881-3.458-.881h-6.241v11.18h-5.692v-28.552h14.21c1.293 0 2.467.208 3.521.623 1.054.416 1.961.989 2.72 1.72s1.342 1.606 1.75 2.623c.407 1.019.611 2.115.611 3.29 0 1.548-.358 2.917-1.075 4.106s-1.75 2.028-3.099 2.516c1.236.401 2.115 1.018 2.635 1.849.52.832.78 2.079.78 3.741v8.084zm-10.626-23.608v7.611h7.337c1.574 0 2.684-.358 3.331-1.075.646-.716.97-1.619.97-2.709 0-1.118-.316-2.035-.949-2.752-.633-.716-1.68-1.075-3.142-1.075z"/><path d="m51.869 158.513c.084 1.606.541 2.881 1.37 3.827s1.918 1.419 3.268 1.419c.899 0 1.693-.207 2.382-.623.688-.416 1.131-.996 1.328-1.742h5.65c-.647 2.18-1.771 3.856-3.374 5.031-1.602 1.176-3.514 1.763-5.734 1.763-6.915 0-10.373-3.841-10.373-11.523 0-1.634.225-3.11.675-4.429.449-1.318 1.103-2.451 1.961-3.397.857-.946 1.904-1.67 3.141-2.172 1.237-.501 2.657-.752 4.259-.752 3.205 0 5.629 1.047 7.274 3.139 1.644 2.093 2.466 5.246 2.466 9.46h-14.293zm8.644-3.526c-.028-.774-.162-1.455-.401-2.043-.239-.587-.555-1.075-.949-1.462s-.843-.673-1.349-.86c-.506-.186-1.026-.279-1.56-.279-1.097 0-2.045.408-2.846 1.226-.801.817-1.259 1.957-1.371 3.419h8.476z"/><path d="m71.348 143.936v-5.203h5.482v5.203zm0 23.693v-21.156h5.482v21.156z"/><path d="m100.358 159.975c-.141 1.233-.485 2.352-1.033 3.354-.548 1.004-1.244 1.863-2.087 2.58s-1.807 1.275-2.889 1.677c-1.083.401-2.256.602-3.521.602-1.406 0-2.692-.236-3.858-.709-1.167-.473-2.171-1.189-3.015-2.15-.844-.96-1.497-2.149-1.961-3.568s-.696-3.075-.696-4.967.232-3.526.696-4.902 1.117-2.5 1.961-3.375c.843-.874 1.862-1.526 3.057-1.957 1.195-.43 2.523-.645 3.985-.645 1.349 0 2.579.187 3.689.559 1.11.373 2.08.918 2.91 1.634.829.718 1.482 1.577 1.96 2.58.478 1.004.759 2.122.843 3.354h-5.523c-.141-1.089-.569-1.941-1.286-2.559-.717-.616-1.596-.925-2.635-.925-.59 0-1.139.101-1.645.302-.506.2-.949.537-1.328 1.01-.38.474-.682 1.104-.907 1.893-.226.788-.337 1.756-.337 2.902 0 2.322.407 4.042 1.223 5.16.815 1.118 1.757 1.677 2.825 1.677s1.982-.301 2.741-.903 1.195-1.476 1.307-2.623h5.524z"/><path d="m118.405 167.629v-13.115c0-1.604-.274-2.701-.822-3.289s-1.455-.882-2.72-.882c-.675 0-1.28.137-1.813.408-.534.273-.984.646-1.349 1.118-.366.474-.64 1.019-.822 1.634-.183.617-.274 1.284-.274 2v12.126h-5.482v-28.896h5.482v10.492c.196-.458.499-.896.906-1.312.407-.415.878-.767 1.413-1.053.534-.287 1.124-.517 1.771-.688.646-.172 1.321-.258 2.024-.258 2.136 0 3.872.595 5.208 1.784 1.335 1.19 2.003 2.846 2.003 4.967v14.964z"/><path d="m128.651 177.647v-31.175h5.271l.042 2.58c1.265-2.092 3.19-3.139 5.777-3.139 1.292 0 2.494.258 3.605.773 1.11.517 2.059 1.262 2.846 2.236s1.406 2.165 1.855 3.569.675 2.996.675 4.772c0 1.606-.19 3.075-.569 4.408s-.935 2.487-1.666 3.461c-.731.975-1.624 1.728-2.678 2.258s-2.256.795-3.605.795c-2.559 0-4.611-1.103-6.156-3.311v12.771h-5.397zm9.783-14.232c3.148 0 4.723-2.179 4.723-6.536 0-1.892-.436-3.433-1.307-4.622-.872-1.189-1.997-1.785-3.374-1.785-1.321 0-2.424.56-3.31 1.677-.885 1.118-1.328 2.58-1.328 4.387-.001 4.586 1.531 6.879 4.596 6.879z"/><path d="m153.149 143.936v-5.203h5.482v5.203zm0 23.693v-21.156h5.482v21.156z"/><path d="m167.654 158.513c.084 1.606.541 2.881 1.37 3.827s1.918 1.419 3.268 1.419c.899 0 1.693-.207 2.382-.623.688-.416 1.131-.996 1.328-1.742h5.65c-.647 2.18-1.771 3.856-3.374 5.031-1.602 1.176-3.514 1.763-5.734 1.763-6.915 0-10.373-3.841-10.373-11.523 0-1.634.225-3.11.675-4.429.449-1.318 1.103-2.451 1.961-3.397.857-.946 1.904-1.67 3.141-2.172 1.237-.501 2.657-.752 4.259-.752 3.205 0 5.629 1.047 7.274 3.139 1.644 2.093 2.466 5.246 2.466 9.46h-14.293zm8.644-3.526c-.028-.774-.162-1.455-.401-2.043-.239-.587-.555-1.075-.949-1.462s-.843-.673-1.349-.86c-.506-.186-1.026-.279-1.56-.279-1.097 0-2.045.408-2.846 1.226-.801.817-1.259 1.957-1.371 3.419h8.476z"/><path d="m197.085 153.697h5.102v6.02c0 1.118-.162 2.187-.485 3.203-.324 1.019-.83 1.921-1.518 2.71-.689.788-1.56 1.412-2.614 1.87s-2.312.688-3.774.688c-1.518 0-2.812-.229-3.879-.688-1.068-.458-1.947-1.075-2.635-1.849-.689-.774-1.188-1.678-1.497-2.709-.31-1.032-.464-2.122-.464-3.269v-18.92h5.397v5.719h11.469v3.956h-11.469v8.687c0 1.348.246 2.386.738 3.117s1.3 1.097 2.425 1.097c1.096 0 1.904-.358 2.424-1.075.52-.716.78-1.734.78-3.053z"/><path d="m219.18 152.88c-.141-.975-.5-1.684-1.075-2.129-.577-.443-1.455-.666-2.636-.666-1.125 0-1.975.137-2.551.408-.577.273-.864.738-.864 1.397 0 .574.288 1.032.864 1.376.576.345 1.413.674 2.509.989 1.799.516 3.316.953 4.554 1.312 1.237.358 2.228.781 2.973 1.269.744.487 1.279 1.097 1.602 1.827.323.731.485 1.714.485 2.946 0 1.892-.773 3.461-2.319 4.708s-3.837 1.87-6.873 1.87c-1.491 0-2.84-.172-4.048-.516-1.209-.344-2.242-.839-3.099-1.483-.858-.646-1.518-1.419-1.982-2.322-.463-.902-.71-1.913-.738-3.031h5.65c0 1.004.386 1.777 1.16 2.322.772.545 1.777.816 3.015.816 1.04 0 1.933-.164 2.678-.494.745-.329 1.117-.839 1.117-1.526 0-.774-.274-1.333-.822-1.677-.548-.345-1.385-.646-2.509-.903-2.024-.458-3.655-.938-4.891-1.44-1.237-.501-2.2-1.054-2.889-1.655-.689-.603-1.153-1.262-1.391-1.979-.239-.716-.358-1.519-.358-2.408 0-.802.161-1.562.485-2.278.323-.717.836-1.348 1.539-1.893.702-.544 1.616-.981 2.741-1.312 1.124-.329 2.501-.494 4.132-.494 2.979 0 5.158.616 6.536 1.849 1.377 1.233 2.136 2.939 2.277 5.117z"/><path d="m246.756 159.975c-.141 1.233-.485 2.352-1.033 3.354-.548 1.004-1.244 1.863-2.087 2.58s-1.807 1.275-2.889 1.677c-1.083.401-2.256.602-3.521.602-1.406 0-2.692-.236-3.858-.709-1.167-.473-2.171-1.189-3.015-2.15-.844-.96-1.497-2.149-1.961-3.568s-.696-3.075-.696-4.967.232-3.526.696-4.902 1.117-2.5 1.961-3.375c.843-.874 1.862-1.526 3.057-1.957 1.195-.43 2.523-.645 3.985-.645 1.349 0 2.579.187 3.689.559 1.11.373 2.08.918 2.91 1.634.829.718 1.482 1.577 1.96 2.58.478 1.004.759 2.122.843 3.354h-5.523c-.141-1.089-.569-1.941-1.286-2.559-.717-.616-1.596-.925-2.635-.925-.59 0-1.139.101-1.645.302-.506.2-.949.537-1.328 1.01-.38.474-.682 1.104-.907 1.893-.226.788-.337 1.756-.337 2.902 0 2.322.407 4.042 1.223 5.16.815 1.118 1.757 1.677 2.825 1.677s1.982-.301 2.741-.903 1.195-1.476 1.307-2.623h5.524z"/><path d="m264.803 167.629v-13.115c0-1.604-.274-2.701-.822-3.289s-1.455-.882-2.72-.882c-.675 0-1.28.137-1.813.408-.534.273-.984.646-1.349 1.118-.366.474-.64 1.019-.822 1.634-.183.617-.274 1.284-.274 2v12.126h-5.482v-28.896h5.482v10.492c.196-.458.499-.896.906-1.312.407-.415.878-.767 1.413-1.053.534-.287 1.124-.517 1.771-.688.646-.172 1.321-.258 2.024-.258 2.136 0 3.872.595 5.208 1.784 1.335 1.19 2.003 2.846 2.003 4.967v14.964z"/><path d="m288.374 152.88c-.141-.975-.5-1.684-1.075-2.129-.577-.443-1.455-.666-2.636-.666-1.125 0-1.975.137-2.551.408-.577.273-.864.738-.864 1.397 0 .574.288 1.032.864 1.376.576.345 1.413.674 2.509.989 1.799.516 3.316.953 4.554 1.312 1.237.358 2.228.781 2.973 1.269.744.487 1.279 1.097 1.602 1.827.323.731.485 1.714.485 2.946 0 1.892-.773 3.461-2.319 4.708s-3.837 1.87-6.873 1.87c-1.491 0-2.84-.172-4.048-.516-1.209-.344-2.242-.839-3.099-1.483-.858-.646-1.518-1.419-1.982-2.322-.463-.902-.71-1.913-.738-3.031h5.65c0 1.004.386 1.777 1.16 2.322.772.545 1.777.816 3.015.816 1.04 0 1.933-.164 2.678-.494.745-.329 1.117-.839 1.117-1.526 0-.774-.274-1.333-.822-1.677-.548-.345-1.385-.646-2.509-.903-2.024-.458-3.655-.938-4.891-1.44-1.237-.501-2.2-1.054-2.889-1.655-.689-.603-1.153-1.262-1.391-1.979-.239-.716-.358-1.519-.358-2.408 0-.802.161-1.562.485-2.278.323-.717.836-1.348 1.539-1.893.702-.544 1.616-.981 2.741-1.312 1.124-.329 2.501-.494 4.132-.494 2.979 0 5.158.616 6.536 1.849 1.377 1.233 2.136 2.939 2.277 5.117z"/><path d="m310.721 153.697h5.103v6.02c0 1.118-.162 2.187-.485 3.203-.323 1.019-.829 1.921-1.518 2.71-.689.788-1.561 1.412-2.614 1.87-1.055.458-2.312.688-3.774.688-1.518 0-2.811-.229-3.879-.688s-1.947-1.075-2.636-1.849c-.688-.774-1.188-1.678-1.496-2.709-.31-1.032-.464-2.122-.464-3.269v-18.92h5.396v5.719h11.47v3.956h-11.47v8.687c0 1.348.246 2.386.738 3.117.491.731 1.3 1.097 2.425 1.097 1.096 0 1.904-.358 2.425-1.075.52-.716.779-1.734.779-3.053z"/><path d="m319.492 167.629v-21.156h5.144v2.537c.449-.716.921-1.275 1.413-1.677.491-.401.997-.71 1.518-.925s1.047-.351 1.581-.408 1.082-.086 1.645-.086h.717v5.719c-.506-.086-1.012-.129-1.518-.129-3.346 0-5.018 1.706-5.018 5.117v11.008z"/><path d="m346.688 167.629c-.168-.544-.281-1.175-.337-1.892-.646.745-1.504 1.34-2.572 1.784s-2.305.666-3.71.666c-2.39 0-4.14-.537-5.25-1.612-1.111-1.075-1.666-2.473-1.666-4.192 0-1.519.239-2.73.717-3.634.478-.902 1.139-1.612 1.982-2.128.843-.517 1.848-.896 3.015-1.14 1.166-.243 2.438-.466 3.816-.667 1.377-.2 2.305-.465 2.782-.795.478-.329.717-.867.717-1.612 0-.688-.315-1.226-.948-1.613s-1.483-.58-2.551-.58c-1.266 0-2.172.287-2.72.86-.549.573-.894 1.333-1.033 2.278h-5.103c.028-1.089.204-2.092.527-3.01.322-.917.843-1.705 1.56-2.365.718-.659 1.651-1.167 2.805-1.526 1.152-.357 2.558-.537 4.217-.537 1.63 0 3.015.187 4.153.559 1.138.373 2.052.91 2.74 1.612.688.703 1.188 1.577 1.497 2.623.31 1.047.464 2.229.464 3.548v13.373zm-.379-10.363c-.281.287-.689.517-1.223.688-.534.172-1.308.358-2.319.559-1.575.316-2.656.717-3.247 1.204-.59.488-.886 1.19-.886 2.107 0 1.576.886 2.364 2.657 2.364.702 0 1.355-.121 1.96-.365.604-.243 1.124-.573 1.561-.989.436-.415.787-.902 1.055-1.462.267-.559.4-1.153.4-1.784z"/><path d="m363.766 163.501c.196.029.394.051.59.064.196.015.394.021.591.021 1.603 0 2.867-.451 3.795-1.354s1.392-2.057 1.392-3.462c0-.945-.147-1.741-.443-2.386-.295-.646-.702-1.161-1.223-1.549-.521-.387-1.152-.673-1.897-.859s-1.567-.294-2.467-.322v-3.526c.871-.028 1.581-.136 2.13-.322.548-.187.983-.437 1.307-.753.323-.314.549-.688.675-1.118.127-.43.189-.902.189-1.419 0-1.347-.365-2.285-1.096-2.816-.731-.53-1.589-.795-2.572-.795-1.012 0-1.876.286-2.594.859-.717.574-1.075 1.491-1.075 2.752v21.113h-5.396v-21.414c0-1.146.189-2.199.569-3.16.379-.96.955-1.785 1.729-2.473.772-.688 1.735-1.218 2.889-1.591 1.152-.372 2.515-.56 4.09-.56 1.546 0 2.881.188 4.006.56 1.124.373 2.059.889 2.804 1.548.744.659 1.293 1.447 1.645 2.365.352.917.527 1.921.527 3.01 0 .803-.078 1.491-.232 2.063-.154.574-.365 1.062-.632 1.462-.268.402-.569.746-.907 1.032-.337.287-.688.545-1.054.774.899.401 1.637.867 2.214 1.397.575.53 1.025 1.097 1.349 1.698.323.603.549 1.255.675 1.957.127.702.19 1.426.19 2.171 0 1.52-.219 2.874-.654 4.063-.436 1.19-1.062 2.208-1.876 3.053-.815.847-1.8 1.491-2.952 1.936s-2.445.666-3.879.666c-1.068 0-1.87-.058-2.403-.172v-4.513z"/><path d="m386.197 158.513c.084 1.606.541 2.881 1.37 3.827s1.919 1.419 3.268 1.419c.899 0 1.693-.207 2.383-.623.688-.416 1.131-.996 1.328-1.742h5.65c-.647 2.18-1.771 3.856-3.373 5.031-1.603 1.176-3.515 1.763-5.735 1.763-6.915 0-10.372-3.841-10.372-11.523 0-1.634.225-3.11.675-4.429.449-1.318 1.103-2.451 1.96-3.397s1.904-1.67 3.142-2.172c1.236-.501 2.656-.752 4.259-.752 3.205 0 5.629 1.047 7.273 3.139 1.645 2.093 2.467 5.246 2.467 9.46h-14.295zm8.644-3.526c-.028-.774-.162-1.455-.4-2.043-.239-.587-.556-1.075-.948-1.462-.395-.387-.844-.673-1.35-.86-.506-.186-1.026-.279-1.561-.279-1.096 0-2.045.408-2.846 1.226-.802.817-1.259 1.957-1.37 3.419h8.475z"/><path d="m417.399 167.629v-19.737h-5.734v-3.87c1.208 0 2.22-.1 3.036-.301.814-.2 1.482-.509 2.002-.924.521-.416.914-.932 1.181-1.549.268-.616.443-1.34.527-2.171h4.47v28.552z"/><path d="m434.14 150.902c1.181 0 2.143-.108 2.888-.323s1.321-.501 1.729-.859c.407-.358.688-.774.843-1.247.154-.474.232-.968.232-1.483 0-1.434-.289-2.522-.864-3.269-.577-.745-1.497-1.118-2.762-1.118-1.069 0-1.955.409-2.657 1.226-.703.817-1.054 1.972-1.054 3.462h-5.103c0-1.376.218-2.623.654-3.741.435-1.118 1.054-2.078 1.854-2.881.802-.803 1.757-1.426 2.867-1.87s2.326-.667 3.647-.667c1.209 0 2.341.187 3.395.559 1.055.373 1.975.903 2.762 1.592.787.688 1.405 1.512 1.855 2.472.449.961.675 2.015.675 3.161 0 1.29-.274 2.516-.822 3.677-.548 1.16-1.37 2.071-2.467 2.73 1.35.573 2.383 1.44 3.1 2.602.717 1.16 1.075 2.645 1.075 4.45 0 1.434-.239 2.724-.717 3.87-.479 1.146-1.153 2.114-2.024 2.902-.871.789-1.912 1.397-3.12 1.827-1.209.431-2.544.646-4.006.646-2.924 0-5.187-.832-6.789-2.494s-2.403-3.956-2.403-6.88h5.271c0 1.663.351 2.874 1.054 3.633.702.761 1.743 1.14 3.12 1.14 1.152 0 2.108-.408 2.867-1.226.76-.816 1.139-1.984 1.139-3.504 0-1.662-.471-2.823-1.412-3.483-.942-.659-2.552-.989-4.828-.989v-3.915z"/><path d="m463.739 158.513c.084 1.606.541 2.881 1.37 3.827s1.919 1.419 3.268 1.419c.899 0 1.693-.207 2.383-.623.688-.416 1.131-.996 1.328-1.742h5.65c-.647 2.18-1.771 3.856-3.373 5.031-1.603 1.176-3.515 1.763-5.735 1.763-6.915 0-10.372-3.841-10.372-11.523 0-1.634.225-3.11.675-4.429.449-1.318 1.103-2.451 1.96-3.397s1.904-1.67 3.142-2.172c1.236-.501 2.656-.752 4.259-.752 3.205 0 5.629 1.047 7.273 3.139 1.645 2.093 2.467 5.246 2.467 9.46h-14.295zm8.644-3.526c-.028-.774-.162-1.455-.4-2.043-.239-.587-.556-1.075-.948-1.462-.395-.387-.844-.673-1.35-.86-.506-.186-1.026-.279-1.561-.279-1.096 0-2.045.408-2.846 1.226-.802.817-1.259 1.957-1.37 3.419h8.475z"/><path d="m502.151 167.629-.126-2.838c-.675 1.204-1.758 2.144-3.247 2.816-1.49.673-3.205 1.011-5.145 1.011s-3.689-.424-5.249-1.269c-1.561-.846-2.896-1.979-4.006-3.397-1.111-1.419-1.961-3.053-2.552-4.901-.59-1.85-.885-3.763-.885-5.741 0-2.092.295-4.063.885-5.912.591-1.849 1.462-3.462 2.614-4.838s2.586-2.457 4.302-3.246c1.714-.788 3.71-1.183 5.987-1.183 1.658 0 3.211.244 4.659.731 1.447.487 2.713 1.16 3.795 2.021s1.953 1.886 2.614 3.074c.66 1.19 1.047 2.502 1.16 3.935h-5.903c-.085-.659-.31-1.282-.675-1.87-.366-.587-.83-1.097-1.392-1.526-.562-.431-1.217-.774-1.961-1.032-.745-.258-1.512-.387-2.298-.387-2.361 0-4.252.896-5.672 2.688-1.419 1.792-2.129 4.394-2.129 7.805 0 1.176.147 2.357.442 3.547.296 1.19.76 2.265 1.392 3.226.633.96 1.44 1.741 2.425 2.343.983.603 2.15.903 3.5.903.955 0 1.848-.172 2.678-.516.828-.345 1.553-.817 2.171-1.419.618-.603 1.104-1.297 1.455-2.086.351-.788.527-1.627.527-2.516h-6.199v-4.772h11.681v15.351h-4.848z"/><path d="m18.332 129.629h488.669" fill="none" stroke="#000" stroke-miterlimit="10" stroke-width="3"/><path d="m19.017 120.246v-101.592h74.664v17.748h-54.009v21.726h49.725v17.901h-49.725v26.163h56.457v18.055h-77.112z"/><path d="m101.331 35.942v-18.512h19.89v18.513h-19.89zm0 84.304v-75.276h19.89v75.276z"/><path d="m178.44 120.246v-45.595c0-5.814-.97-9.739-2.907-11.781-1.939-2.039-5.255-3.06-9.945-3.06-10.303 0-15.453 5.764-15.453 17.289v43.146h-19.89v-75.275h18.972v11.016c2.345-4.284 5.455-7.521 9.333-9.716 3.875-2.192 8.874-3.29 14.994-3.29 3.569 0 6.885.536 9.945 1.606 3.06 1.071 5.685 2.678 7.879 4.82 2.192 2.142 3.925 4.769 5.202 7.879 1.274 3.113 1.912 6.708 1.912 10.787v52.173h-20.042z"/><path d="m267.638 120.246v-45.595h-39.627v45.595h-21.267v-101.592h21.267v38.25h39.627v-38.25h21.42v101.592z"/><path d="m344.136 120.246c-.611-1.938-1.02-4.182-1.223-6.732-2.349 2.653-5.458 4.77-9.333 6.35-3.878 1.58-8.365 2.371-13.465 2.371-8.67 0-15.02-1.912-19.048-5.737-4.03-3.825-6.044-8.798-6.044-14.917 0-5.406.865-9.716 2.602-12.93 1.732-3.213 4.131-5.737 7.19-7.573s6.706-3.187 10.94-4.055c4.23-.865 8.848-1.657 13.846-2.372 4.996-.712 8.362-1.656 10.098-2.83 1.734-1.171 2.601-3.084 2.601-5.738 0-2.448-1.146-4.36-3.441-5.737-2.296-1.377-5.382-2.065-9.257-2.065-4.59 0-7.879 1.021-9.868 3.06-1.989 2.042-3.239 4.743-3.749 8.109h-18.513c.101-3.875.739-7.444 1.913-10.71 1.171-3.263 3.06-6.067 5.66-8.415 2.602-2.345 5.991-4.155 10.175-5.432 4.181-1.274 9.28-1.913 15.3-1.913 5.914 0 10.939.665 15.071 1.989 4.131 1.327 7.443 3.239 9.945 5.737 2.498 2.5 4.307 5.611 5.43 9.333 1.121 3.725 1.684 7.932 1.684 12.623v47.583h-18.514zm-1.377-36.873c-1.021 1.021-2.499 1.836-4.437 2.448s-4.742 1.277-8.414 1.989c-5.715 1.124-9.64 2.551-11.781 4.284-2.143 1.735-3.213 4.234-3.213 7.497 0 5.61 3.213 8.415 9.639 8.415 2.549 0 4.92-.434 7.114-1.301 2.192-.865 4.079-2.039 5.661-3.52 1.58-1.477 2.854-3.213 3.825-5.201.969-1.989 1.453-4.105 1.453-6.35z"/><path d="m420.33 120.246v-10.558c-5.103 8.364-12.905 12.546-23.409 12.546-3.775 0-7.218-.664-10.328-1.988-3.112-1.324-5.79-3.213-8.032-5.662-2.245-2.447-4.004-5.354-5.278-8.721-1.276-3.365-1.913-7.139-1.913-11.322v-49.571h19.891v46.512c0 9.386 4.231 14.076 12.699 14.076 5.099 0 8.95-1.606 11.551-4.819 2.602-3.213 3.901-7.318 3.901-12.316v-43.453h19.737v75.276z"/><path d="m493.157 67.767c-.511-3.672-1.836-6.247-3.978-7.727-2.142-1.478-5.508-2.218-10.098-2.218-3.775 0-6.683.485-8.722 1.453-2.041.971-3.06 2.577-3.06 4.82 0 2.245 1.019 3.954 3.06 5.125 2.039 1.174 5.1 2.321 9.181 3.442 4.283 1.224 8.362 2.321 12.239 3.29 3.876.971 7.292 2.015 10.251 3.136 3.979 1.633 7.038 3.852 9.181 6.656 2.142 2.807 3.213 6.655 3.213 11.551 0 7.856-2.78 13.977-8.339 18.361-5.561 4.387-13.746 6.578-24.557 6.578-11.628 0-20.528-2.447-26.698-7.344-6.173-4.896-9.359-11.169-9.562-18.818h20.502c0 3.57 1.377 6.324 4.131 8.262s6.579 2.906 11.476 2.906c3.569 0 6.679-.586 9.333-1.76 2.65-1.171 3.978-3.186 3.978-6.043 0-2.65-1.2-4.537-3.596-5.661-2.397-1.121-5.228-2.089-8.491-2.907-6.325-1.529-11.425-2.906-15.3-4.131-3.878-1.224-7.141-2.701-9.792-4.437-3.572-2.243-6.044-4.793-7.421-7.65-1.377-2.854-2.065-5.967-2.065-9.333 0-3.161.56-6.12 1.684-8.874 1.121-2.754 2.957-5.125 5.508-7.115 2.548-1.989 5.838-3.543 9.868-4.667 4.028-1.121 8.898-1.683 14.611-1.683 10.913 0 18.946 2.092 24.098 6.273 5.149 4.184 7.98 10.354 8.491 18.513h-19.126z"/></svg>