<svg viewBox="0 0 495 159" xmlns="http://www.w3.org/2000/svg"><g transform="matrix(1.0131508 0 0 1.0131508 -18.208984 -20.883489)"><path d="m34 168v-7.468c.4535-1.398.1409-2.395-.4822-2.993-.6241-.241-1.7856-.539-3.4865-.539h-6.0313v11h-6v-29h14.3271c1.3037 0 2.4873.211 3.55.633s1.9772 1.004 2.7424 1.747c.7653.742 1.3531 1.631 1.7645 2.664.4103 1.035.616 2.148.616 3.342 0 1.572-.361 2.962-1.0839 4.17s-1.7644 2.06-3.1245 2.555c1.2462.408 2.1324 1.034 2.6567 1.878.2896.846.5517 2.112.5517 3.8v8.211h-5.5465zm-10-23.978v7.978h7.1374c1.587-.248 2.7061-.612 3.3584-1.34.6514-.727.978-1.644.978-2.751 0-1.136-.3186-2.067-.9568-2.796-.6382-.749-1.6938-1.113-3.1679-1.113h-7.6092z"/><path d="m52 158c-.3699 2.03.0922 3.289.9306 4.224.8384.934 1.9397 1.401 3.305 1.401.9092 0 1.7122-.204 2.409-.615.6958-.7 1.1438-1.273 1.3431-2.01h5.714c-.6544 2.443-1.7911 4.098-3.4123 5.259-1.6201 1.161-3.5538 1.741-5.7989 1.741-6.9933 0-10.4905-3.794-10.4905-11.382 0-1.614.2275-3.072.6826-4.374.4541-1.302 1.1155-2.421 1.9833-3.356.8667-.934 1.9255-1.649 3.1765-2.145 1.251-.495 2.6871-.743 4.3073-.743 3.2413 0 5.6927 1.034 7.3564 3.101 1.6626 1.622 2.4939 4.736 2.4939 8.899h-14.4549zm8.287-3.039c-.0283-.765-.1638-1.437-.4055-2.018-.2417-.58-.5613-1.062-.9598-1.444-.3984-.382-.8525-.665-1.3643-.85-.5117-.183-1.0376-.275-1.5776-.275-1.1095 0-2.0682.403-2.8783 1.211-.81.845-1.2732 1.971-1.3865 3.415h8.572z"/><path d="m71 144v-5h5v5zm0 24v-21h5v21z"/><path d="m100 160c-.181 1.106-.5232 2.211-1.0683 3.201-.5451.991-1.2374 1.84-2.076 2.548-.8385.708-1.7974 1.259-2.8737 1.656-1.0773.396-2.2441.595-3.5024.595-1.3986 0-2.6778-.233-3.8376-.7-1.1608-.468-2.1595-1.175-2.999-2.124-.8396-.948-1.4891-2.123-1.9507-3.524-.4615-1.402-.6923-3.038-.6923-4.906 0-1.869.2308-3.483.6923-4.842.4616-1.359 1.1111-2.47 1.9507-3.334.8385-.863 1.8521-1.507 3.0408-1.933 1.1887-.425 2.5096-.637 3.9639-.637 1.3419 0 2.5654.185 3.6695.552 1.1041.369 2.069.907 2.8946 1.614.8246.709 1.4742 1.558 1.9497 2.548.4754.965.7545 2.069.8385 3.286h-5.4938c-.1403-1.048-.566-1.89-1.2792-2.5-.7132-.609-1.5876-.914-2.6211-.914-.5868 0-1.1329.1-1.6363.298-.5033.198-.9439.531-1.3209.998-.378.468-.6784 1.09-.9022 1.87-.2249.778-.3353 1.734-.3353 2.866 0 2.294.4049 3.993 1.2166 5.097.8107 1.104 1.7477 1.656 2.81 1.656 1.0624 0 1.9716-.297 2.7265-.891.755-.484 1.1887-1.347 1.3001-2.48z"/><path d="m118 168v-13.162c.418-1.61.141-2.711-.412-3.301-.554-.59-1.47-.885-2.748-.885-.682 0-1.293.137-1.832.409-.539.274-.994.649-1.362 1.122-.37.476-.647 1.023-.831 1.64.277.619.185 1.289.185 2.007v12.17h-6v-29h6v10.53c-.264-.46.042-.899.454-1.317.411-.416.887-.77 1.427-1.057.54-.288 1.136-.519 1.789-.69.653-.173 1.335-.259 2.045-.259 2.158 0 3.912.597 5.261 1.79 1.349 1.195 2.024 2.857 2.024 4.985v15.018z"/><path d="m129 178v-31h5.252l.042 2.165c1.261-2.109 3.179-3.165 5.757-3.165 1.287 0 2.485.26 3.592.779 1.106.522 2.052 1.273 2.836 2.255s1.401 2.183 1.848 3.599c.448 1.416.673 3.021.673 4.812 0 1.62-.189 3.101-.567 4.445s-.932 2.508-1.66 3.49c-.729.983-1.618 1.743-2.669 2.277-1.05.534-2.248.802-3.592.802-2.928 0-4.973-1.113-6.512-3.339v12.88zm9.748-14.351c3.137 0 4.707-2.198 4.707-6.591 0-1.908-.435-3.462-1.303-4.661-.869-1.199-1.99-1.8-3.362-1.8-1.316 0-2.415.565-3.298 1.691-.882 1.128-1.323 2.602-1.323 4.424-.001 4.624 1.525 6.937 4.579 6.937z"/><path d="m153 144v-5h5v5zm0 24v-21h5v21z"/><path d="m168 158c-.37 2.03.092 3.289.931 4.224.838.934 1.939 1.401 3.305 1.401.909 0 1.712-.204 2.409-.615.695-.7 1.143-1.273 1.343-2.01h5.714c-.655 2.443-1.791 4.098-3.413 5.259-1.62 1.161-3.553 1.741-5.799 1.741-6.993 0-10.49-3.794-10.49-11.382 0-1.614.228-3.072.683-4.374.454-1.302 1.115-2.421 1.983-3.356.867-.934 1.925-1.649 3.176-2.145 1.251-.495 2.688-.743 4.308-.743 3.241 0 5.692 1.034 7.356 3.101 1.663 1.622 2.494 4.736 2.494 8.899h-14.455zm8.287-3.039c-.028-.765-.164-1.437-.406-2.018-.241-.58-.561-1.062-.959-1.444-.399-.382-.853-.665-1.365-.85-.511-.183-1.037-.275-1.577-.275-1.11 0-2.068.403-2.878 1.211-.811.845-1.274 1.971-1.387 3.415h8.572z"/><path d="m197 154h5v5.663c0 1.101-.163 2.153-.489 3.153-.326 1.002-.836 1.89-1.53 2.667-.694.775-1.572 1.389-2.635 1.84-1.062.451-2.33.677-3.804.677-1.53 0-2.834-.225-3.909-.677-1.077-.451-1.963-1.058-2.656-1.82-.695-.762-1.198-1.651-1.509-2.666-.313-1.015-.468-2.088-.468-3.217v-18.62h5v6h12v4h-12v8.071c.44 1.326.688 2.348 1.184 3.067.496.72 1.31 1.08 2.444 1.08 1.105 0 1.919-.352 2.443-1.058.667-.705.929-1.706.929-3.005z"/><path d="m219 153c.017-1.082-.341-1.783-.915-2.222-.575-.438-1.45-.658-2.627-.658-1.122 0-1.969.135-2.543.403-.576.27-.862.729-.862 1.38 0 .567.287 1.019.862 1.359.574.341 1.408.666 2.501.977 1.793.509 3.305.941 4.54 1.296 1.233.353 2.221.771 2.963 1.253.742.481 1.276 1.084 1.598 1.805.322.722.483 1.693.483 2.91 0 1.868-.771 3.418-2.312 4.65s-3.825 1.847-6.852 1.847c-1.486 0-2.831-.17-4.035-.51-1.205-.339-2.235-.828-3.089-1.464-.856-.639-1.514-1.402-1.976-2.294-.462-.629-.708-1.628-.736-2.732h5.633c0 .73.384 1.493 1.156 2.032.77.538 1.771.806 3.006.806 1.036 0 1.927-.162 2.669-.488.743-.325 1.114-.829 1.114-1.508 0-.764-.273-1.316-.82-1.656-.546-.341-1.38-.638-2.501-.892-2.018-.452-3.644-.926-4.876-1.422-1.233-.495-2.193-1.041-2.88-1.635-.687-.596-1.149-1.247-1.386-1.955-.239-.707-.357-1.5-.357-2.378 0-.792.16-1.543.483-2.25.322-.709.834-1.332 1.534-1.87.7-.537 1.611-.969 2.733-1.296 1.12-.325 2.493-.488 4.119-.488 2.97 0 5.142.608 6.516 1.826 1.373 1.337 2.129 3.022 2.27 5.174z"/><path d="m247 160c-.181 1.106-.523 2.211-1.068 3.201-.545.991-1.238 1.84-2.076 2.548-.839.708-1.798 1.259-2.874 1.656-1.077.396-2.244.595-3.502.595-1.399 0-2.678-.233-3.838-.7-1.161-.468-2.16-1.175-2.999-2.124-.84-.948-1.489-2.123-1.951-3.524-.461-1.402-.692-3.038-.692-4.906 0-1.869.231-3.483.692-4.842.462-1.359 1.111-2.47 1.951-3.334.838-.863 1.852-1.507 3.041-1.933 1.188-.425 2.509-.637 3.964-.637 1.342 0 2.565.185 3.669.552 1.104.369 2.069.907 2.895 1.614.824.709 1.474 1.558 1.949 2.548.476.965.755 2.069.839 3.286h-5.494c-.14-1.048-.566-1.89-1.279-2.5-.713-.609-1.588-.914-2.621-.914-.587 0-1.133.1-1.636.298-.504.198-.944.531-1.321.998-.378.468-.679 1.09-.903 1.87-.224.778-.335 1.734-.335 2.866 0 2.294.405 3.993 1.217 5.097.81 1.104 1.747 1.656 2.81 1.656 1.062 0 1.971-.297 2.726-.891.755-.484 1.189-1.347 1.3-2.48z"/><path d="m265 168v-13.162c.418-1.61.141-2.711-.412-3.301-.554-.59-1.47-.885-2.748-.885-.682 0-1.293.137-1.832.409-.539.274-.994.649-1.362 1.122-.37.476-.647 1.023-.831 1.64.277.619.185 1.289.185 2.007v12.17h-6v-29h6v10.53c-.264-.46.042-.899.454-1.317.411-.416.887-.77 1.427-1.057.54-.288 1.136-.519 1.789-.69.653-.173 1.335-.259 2.045-.259 2.158 0 3.912.597 5.261 1.79 1.349 1.195 2.024 2.857 2.024 4.985v15.018z"/><path d="m288 153c.017-1.082-.341-1.783-.915-2.222-.575-.438-1.45-.658-2.627-.658-1.122 0-1.969.135-2.543.403-.576.27-.862.729-.862 1.38 0 .567.287 1.019.862 1.359.574.341 1.408.666 2.501.977 1.793.509 3.305.941 4.54 1.296 1.233.353 2.221.771 2.963 1.253.742.481 1.276 1.084 1.598 1.805.322.722.483 1.693.483 2.91 0 1.868-.771 3.418-2.312 4.65s-3.825 1.847-6.852 1.847c-1.486 0-2.831-.17-4.035-.51-1.205-.339-2.235-.828-3.089-1.464-.856-.639-1.514-1.402-1.976-2.294-.462-.629-.708-1.628-.736-2.732h5.633c0 .73.384 1.493 1.156 2.032.77.538 1.771.806 3.006.806 1.036 0 1.927-.162 2.669-.488.743-.325 1.114-.829 1.114-1.508 0-.764-.273-1.316-.82-1.656-.546-.341-1.38-.638-2.501-.892-2.018-.452-3.644-.926-4.876-1.422-1.233-.495-2.193-1.041-2.88-1.635-.687-.596-1.149-1.247-1.386-1.955-.239-.707-.357-1.5-.357-2.378 0-.792.16-1.543.483-2.25.322-.709.834-1.332 1.534-1.87.7-.537 1.611-.969 2.733-1.296 1.12-.325 2.493-.488 4.119-.488 2.97 0 5.142.608 6.516 1.826 1.373 1.337 2.129 3.022 2.27 5.174z"/><path d="m311 154h5v5.663c0 1.101-.163 2.153-.489 3.153-.325 1.002-.835 1.89-1.53 2.667-.694.775-1.573 1.389-2.635 1.84-1.063.451-2.33.677-3.804.677-1.53 0-2.833-.225-3.909-.677-1.077-.452-1.963-1.058-2.657-1.82s-1.198-1.651-1.508-2.666c-.313-1.015-.468-2.088-.468-3.217v-18.62h5v6h12v4h-12v8.071c.439 1.326.687 2.348 1.183 3.067.495.72 1.31 1.08 2.444 1.08 1.105 0 1.919-.352 2.444-1.058.668-.705.929-1.706.929-3.005z"/><path d="m319 168v-21h5v2.137c.585-.726 1.056-1.292 1.547-1.699.49-.407.996-.72 1.516-.938.52-.217 1.045-.355 1.579-.413.533-.058 1.08-.087 1.642-.087h.716v5.794c-.505-.087-1.01-.131-1.516-.131-3.815 0-5.484 1.729-5.484 5.185v11.152z"/><path d="m347 167c-.373-.088-.488-.712-.545-1.42-.659.736-1.533 1.324-2.622 1.762-1.089.439-2.35.658-3.782.658-2.437 0-4.221-.53-5.353-1.592s-1.698-2.443-1.698-4.141c0-1.5.244-2.696.731-3.589.487-.891 1.161-1.593 2.021-2.102.859-.511 1.884-.885 3.073-1.126 1.189-.24 2.486-.461 3.891-.659 1.403-.198 2.35-.459 2.836-.785.487-.325.731-.857.731-1.593 0-.679-.321-1.211-.967-1.593-.645-.382-1.512-.573-2.6-.573-1.291 0-2.215.284-2.773.85-.56.219-.912.969-1.053 1.903h-5.203c.029-.729.208-1.72.537-2.626s.86-1.684 1.591-2.336c.732-.651 1.683-1.153 2.859-1.508 1.175-.352 2.608-.53 4.3-.53 1.661 0 3.073.185 4.233.552 1.161.369 2.092.899 2.794 1.592.701.695 1.211 1.558 1.526 2.591.316 1.034.473 2.202.473 3.505v12.76h-5.201zm-.588-9.787c-.286.283-.702.511-1.247.679-.544.17-1.333.354-2.364.553-1.605.312-2.707.708-3.31 1.189-.601.482-.903 1.175-.903 2.081 0 1.557.903 2.335 2.709 2.335.715 0 1.381-.12 1.998-.361.615-.24 1.146-.565 1.591-.976.445-.41.802-.891 1.076-1.444.272-.553.407-1.139.407-1.763z"/><path d="m364 163c.348.306.547.328.744.341.198.015.397.021.595.021 1.615 0 2.887-.455 3.822-1.365.934-.91 1.401-2.074 1.401-3.491 0-.952-.148-1.755-.446-2.405-.297-.651-.706-1.171-1.231-1.562-.525-.39-1.16-.678-1.91-.866-1.241-.188-2.069-.296-2.975-.325v-3.555c1.368-.028 2.083-.137 2.635-.324.552-.189.99-.441 1.316-.76.326-.316.553-.693.68-1.127.128-.433.19-.909.19-1.43 0-1.359-.367-2.304-1.103-2.84-.736-.534-1.6-.801-2.59-.801-1.019 0-1.889.288-2.612.866-1.155.579-1.516 1.503-1.516 2.775v20.848h-5v-21.152c0-1.155.19-2.217.573-3.186.382-.968.962-1.8 1.741-2.493.777-.694 1.747-1.228 2.909-1.604 1.16-.375 2.533-.565 4.118-.565 1.557 0 2.901.19 4.034.565 1.132.376 2.074.896 2.824 1.56.749.665 1.302 1.459 1.656 2.385.355.924.531 1.937.531 3.035 0 .809-.079 1.503-.234 2.08-.155.578-.367 1.07-.636 1.474-.27.405-.573.752-.913 1.04-.34.289-.693.55-1.062.781.905.404 1.649.874 2.23 1.408.579.534 1.032 1.106 1.358 1.712.325.608.553 1.265.68 1.973.128.708.191 1.438.191 2.189 0 1.532-.221 2.898-.659 4.096-.439 1.2-1.069 2.227-1.889 3.079-.82.854-1.812 1.503-2.972 1.952-1.16.448-2.462.671-3.906.671-1.229 0-2.037-.058-2.574-.173z"/><path d="m387 158c-.372 2.03.09 3.289.929 4.224.838.934 1.94 1.401 3.305 1.401.909 0 1.712-.204 2.41-.615.695-.7 1.143-1.273 1.343-2.01h5.714c-.655 2.443-1.791 4.098-3.412 5.259s-3.554 1.741-5.8 1.741c-6.993 0-10.489-3.794-10.489-11.382 0-1.614.228-3.072.683-4.374.454-1.302 1.115-2.421 1.982-3.356.867-.934 1.925-1.649 3.177-2.145 1.25-.495 2.687-.743 4.308-.743 3.241 0 5.692 1.034 7.355 3.101 1.664 1.622 2.495 4.736 2.495 8.899h-14.457zm8.285-3.039c-.028-.765-.164-1.437-.405-2.018-.241-.58-.562-1.062-.958-1.444-.4-.382-.854-.665-1.366-.85-.511-.183-1.037-.275-1.578-.275-1.109 0-2.068.403-2.878 1.211-.812.845-1.274 1.971-1.386 3.415h8.571z"/><path d="m418 168v-20h-6v-3.977c1.185 0 2.177-.102 2.978-.306.798-.203 1.453-.517 1.963-.939.511-.422.896-.946 1.158-1.573.263-.626.435-1.361.517-2.205h4.384v29z"/><path d="m434 151c1.367-.434 2.326-.541 3.069-.752.742-.212 1.317-.493 1.723-.845.406-.353.686-.762.841-1.228.153-.466.231-.952.231-1.459 0-1.411-.288-2.481-.861-3.216-.575-.734-1.493-1.101-2.754-1.101-1.065 0-1.949.403-2.648 1.207-.701.792-1.051 1.928-1.051 3.394h-5.087c0-1.342.217-2.569.652-3.669.433-1.1 1.05-2.044 1.848-2.835.799-.79 1.751-1.403 2.858-1.84 1.106-.437 2.319-.656 3.636-.656 1.205 0 2.333.184 3.384.55 1.052.367 1.969.889 2.754 1.567.784.677 1.4 1.487 1.849 2.432.447.946.673 1.983.673 3.11 0 1.27-.273 2.476-.82 3.619-.546 1.141-1.365 2.037-2.459 2.686 1.346.564 2.376 1.417 3.09 2.56.715 1.142 1.072 2.603 1.072 4.379 0 1.411-.238 2.68-.715 3.808s-1.149 2.08-2.018 2.856c-.868.776-1.906 1.374-3.11 1.797-1.205.424-2.536.636-3.993.636-2.915 0-5.171-.819-6.768-2.454-1.597-1.411-2.396-3.669-2.396-6.546h5.255c0 1.412.35 2.604 1.05 3.351.7.749 1.738 1.122 3.111 1.122 1.148 0 2.101-.402 2.858-1.207.758-.803 1.135-1.952 1.135-3.448 0-1.635-.469-2.777-1.407-3.427-1.128-.648-2.733-.973-5.002-.973z"/><path d="m464 158c-.372 2.03.09 3.289.929 4.224.838.934 1.94 1.401 3.305 1.401.909 0 1.712-.204 2.41-.615.695-.7 1.143-1.273 1.343-2.01h5.714c-.655 2.443-1.791 4.098-3.412 5.259s-3.554 1.741-5.8 1.741c-6.993 0-10.489-3.794-10.489-11.382 0-1.614.228-3.072.683-4.374.454-1.302 1.115-2.421 1.982-3.356.867-.934 1.925-1.649 3.177-2.145 1.25-.495 2.687-.743 4.308-.743 3.241 0 5.692 1.034 7.355 3.101 1.664 1.622 2.495 4.736 2.495 8.899h-14.457zm8.285-3.039c-.028-.765-.164-1.437-.405-2.018-.241-.58-.562-1.062-.958-1.444-.4-.382-.854-.665-1.366-.85-.511-.183-1.037-.275-1.578-.275-1.109 0-2.068.403-2.878 1.211-.812.845-1.274 1.971-1.386 3.415h8.571z"/><path d="m502 167 .037-2.766c-.673 1.185-1.754 2.11-3.24 2.771-1.486.662-3.198.995-5.133.995-1.936 0-3.681-.417-5.238-1.249s-2.889-1.947-3.997-3.342c-1.108-1.397-1.956-3.005-2.546-4.823-.589-1.821-.883-3.703-.883-5.649 0-2.059.294-3.999.883-5.818.59-1.819 1.459-3.407 2.608-4.761 1.15-1.354 2.58-2.418 4.293-3.194 1.71-.775 3.701-1.164 5.973-1.164 1.655 0 3.204.24 4.649.719 1.444.48 2.707 1.142 3.786 1.989 1.08.847 1.949 1.856 2.609 3.025.658 1.566 1.044 2.857 1.157 4.267h-5.89c-.085-1.043-.309-1.656-.673-2.235-.365-.578-.828-1.08-1.389-1.502-.561-.424-1.214-.761-1.957-1.015s-1.508-.381-2.293-.381c-2.355 0-4.242.882-5.659 2.645-1.416 1.763-2.124 4.324-2.124 7.68 0 1.158.146 2.32.441 3.491s.758 2.229 1.389 3.174 1.436 1.713 2.419 2.306c.981.593 2.145.888 3.492.888.953 0 1.844-.169 2.672-.507.827-.34 1.55-.804 2.167-1.397.616-.593 1.101-1.276 1.451-2.052.351-.395.526-1.22.526-2.095h-6.53v-5h12v15z"/></g><path d="m0 111.49999h495.563" fill="none" stroke="#000" stroke-miterlimit="10" stroke-width="3"/><g transform="translate(-18.97748 -16.585799)"><path d="m18.9775 120.586v-102.0002h75v18h-54v22h49v18h-49v26.0002h56v18z"/><path d="m100.977 35.5858v-19h20v19h-19.977zm0 84.4142v-75.4142h20v75.4142z"/><path d="m177.977 119.586v-45.024c.05-5.794-.916-9.7055-2.847-11.7405-1.932-2.032-5.236-3.0495-9.91-3.0495-10.111 0-15.243 5.7442-15.243 17.2295v42.5845h-20v-75.0002h19v11.3754c2.266-4.2692 5.365-7.4951 9.229-9.6825 3.862-2.1845 8.844-3.2787 14.942-3.2787 3.557 0 6.861.5341 9.911 1.6005 3.049 1.0673 5.665 2.6687 7.851 4.8034 2.185 2.1346 3.912 4.7525 5.184 7.8518 1.247 3.1023 1.883 6.6849 1.883 10.7499v51.5804z"/><path d="m267.977 120.586v-45.0002h-40v45.0002h-21v-102.0002h21v39h40v-39h21v102.0002z"/><path d="m343.977 119.586c-.207-1.5-.619-3.737-.823-6.279-2.362 2.645-5.488 4.755-9.384 6.33-3.9 1.575-8.411 2.363-13.54 2.363-8.717 0-15.102-1.906-19.153-5.718-4.052-3.813-6.077-8.77-6.077-14.869 0-5.3891.87-9.6853 2.616-12.8889 1.742-3.2027 4.154-5.7186 7.23-7.5486 3.076-1.8301 6.743-3.1768 11-4.042 4.254-.8622 8.897-1.6517 13.923-2.3644 5.023-.7097 8.408-1.6506 10.153-2.8209 1.744-1.1672 2.616-3.074 2.616-5.7195 0-2.4401-1.153-4.346-3.46-5.7185-2.309-1.3726-5.412-2.0584-9.308-2.0584-4.616 0-7.923 1.0177-9.923 3.0502-2 2.2363-3.257 4.9286-3.769 8.2838h-18.615c.101-4.0635.743-7.621 1.923-10.8765 1.178-3.2525 3.077-6.0475 5.691-8.3879 2.617-2.3375 6.024-4.1416 10.231-5.4145 4.204-1.2699 9.332-1.9069 15.385-1.9069 5.946 0 10.999.6629 15.154 1.9826 4.154 1.3228 7.484 3.2286 10 5.7186 2.512 2.4919 4.331 5.5929 5.46 9.3029 1.104 3.7131 1.67 7.9065 1.67 12.5824v46.9995h-18.593zm-.978-36.3229c-1.026 1.0177-2.512 1.8301-4.461 2.4401s-4.768 1.2729-8.461 1.9826c-5.746 1.1204-9.693 2.5428-11.846 4.2702-2.154 1.7294-3.23 4.2204-3.23 7.4729 0 5.5921 3.23 8.3881 9.692 8.3881 2.563 0 4.947-.433 7.153-1.297 2.204-.862 4.102-2.032 5.692-3.508 1.589-1.473 2.87-3.2033 3.846-5.1849.975-1.9826 1.461-4.0918 1.461-6.3296z"/><path d="m419.977 119.586v-10.089c-4.977 8.335-12.804 12.503-23.343 12.503-3.787 0-7.241-.662-10.361-1.981-3.123-1.32-5.809-3.202-8.059-5.643-2.252-2.439-4.017-5.336-5.295-8.691-1.303-3.354-1.942-7.1147-1.942-11.2834v-49.8158h20v46.7672c-.021 9.354 4.224 14.028 12.719 14.028 5.116 0 8.979-1.601 11.589-4.803 2.388-3.2016 3.692-7.2926 3.692-12.2735v-43.7187h20v75.0002z"/><path d="m492.977 67.5858c-.706-3.5377-2.028-6.1044-4.165-7.5797-2.137-1.4732-5.496-2.2108-10.075-2.2108-3.767 0-6.668.4834-8.703 1.4483-2.036.9679-3.053 2.5687-3.053 4.8045 0 2.2378 1.017 3.9413 3.053 5.1085 2.035 1.1702 5.089 2.3135 9.161 3.4309 4.273 1.2201 8.343 2.3136 12.211 3.2794 3.867.9679 7.276 2.0086 10.228 3.126 3.97 1.6277 7.022 3.8396 9.16 6.6345 2.137 2.798 3.206 6.6336 3.206 11.5139 0 7.8307-2.774 13.9327-8.32 18.3017-5.549 4.373-13.715 6.557-24.502 6.557-11.602 0-20.481-2.439-26.638-7.32-6.159-5.216-9.337-11.469-9.54-19.0942h20.456c0 3.8949 1.374 6.6402 4.121 8.5722 2.748 1.932 6.565 2.896 11.451 2.896 3.56 0 6.663-.584 9.311-1.754 2.645-1.167 3.97-3.176 3.97-6.0236 0-2.6415-1.198-4.5224-3.588-5.6428-2.392-1.1174-5.217-2.0823-8.472-2.8977-6.311-1.524-11.399-2.8966-15.266-4.1177-3.869-1.22-7.125-2.6923-9.77-4.4227-3.564-2.2358-6.03-4.7776-7.404-7.6254-1.374-2.8448-2.06-5.9478-2.06-9.3029 0-3.1509.559-6.1004 1.68-8.8455 1.118-2.7451 2.95-5.1085 5.496-7.0921 2.542-1.9826 5.824-3.5316 9.845-4.652 4.019-1.1174 8.878-1.6776 14.578-1.6776 10.889 0 18.904 2.0853 24.044 6.2528 5.137 4.0501 7.962 10.2002 8.472 18.333z"/></g><path d="m88 .99999075h2v2.00000005h-2z"/></svg>