<svg xmlns="http://www.w3.org/2000/svg" id="svg68" width="500" height="500" version="1.1" viewBox="-7 -160 510 510"><g id="g46" transform="translate(-18.209 -20.883) scale(1.01315)"><path id="path2" d="M34 168v-7.468c.454-1.398.14-2.395-.482-2.993-.624-.241-1.786-.539-3.487-.539H24v11h-6v-29h14.327c1.304 0 2.487.211 3.55.633 1.063.422 1.977 1.004 2.742 1.747a7.553 7.553 0 0 1 1.765 2.664 8.982 8.982 0 0 1 .616 3.342c0 1.572-.361 2.962-1.084 4.17-.723 1.208-1.764 2.06-3.124 2.555 1.246.408 2.132 1.034 2.656 1.878.29.846.552 2.112.552 3.8V168h-5.547Zm-10-23.978V152h7.137c1.587-.248 2.706-.612 3.359-1.34.651-.727.978-1.644.978-2.751 0-1.136-.319-2.067-.957-2.796-.638-.749-1.694-1.113-3.168-1.113h-7.61z"/><path id="path4" d="M52 158c-.37 2.03.092 3.289.93 4.224.839.934 1.94 1.401 3.306 1.401.909 0 1.712-.204 2.409-.615.695-.7 1.143-1.273 1.343-2.01h5.714c-.655 2.443-1.791 4.098-3.413 5.259C60.67 167.42 58.736 168 56.49 168 49.497 168 46 164.206 46 156.618c0-1.614.228-3.072.683-4.374.454-1.302 1.115-2.421 1.983-3.356.867-.934 1.925-1.649 3.176-2.145 1.251-.495 2.687-.743 4.308-.743 3.241 0 5.692 1.034 7.356 3.101C65.17 150.723 66 153.837 66 158H51.545Zm8.287-3.039c-.028-.765-.164-1.437-.406-2.018-.241-.58-.56-1.062-.96-1.444a3.834 3.834 0 0 0-1.364-.85 4.652 4.652 0 0 0-1.577-.275c-1.11 0-2.068.403-2.878 1.211-.81.845-1.274 1.971-1.387 3.415h8.572z"/><path id="path6" d="M71 144v-5h5v5zm0 24v-21h5v21z"/><path id="path8" d="M100 160c-.181 1.106-.523 2.211-1.068 3.201a8.938 8.938 0 0 1-2.076 2.548 9.517 9.517 0 0 1-2.874 1.656c-1.077.396-2.244.595-3.502.595-1.399 0-2.678-.233-3.838-.7a7.894 7.894 0 0 1-2.999-2.124c-.84-.948-1.49-2.123-1.95-3.524-.462-1.402-.693-3.038-.693-4.906 0-1.869.23-3.483.692-4.842.462-1.359 1.111-2.47 1.951-3.334a7.883 7.883 0 0 1 3.04-1.933c1.19-.425 2.51-.637 3.965-.637 1.342 0 2.565.185 3.67.552a8.576 8.576 0 0 1 2.894 1.614 7.743 7.743 0 0 1 1.95 2.548c.475.965.754 2.069.838 3.286h-5.494c-.14-1.048-.566-1.89-1.279-2.5-.713-.609-1.588-.914-2.621-.914-.587 0-1.133.1-1.636.298-.504.198-.944.531-1.321.998-.378.468-.679 1.09-.903 1.87-.224.778-.335 1.734-.335 2.866 0 2.294.405 3.993 1.217 5.097.81 1.104 1.747 1.656 2.81 1.656 1.062 0 1.971-.297 2.726-.891.755-.484 1.189-1.347 1.3-2.48z"/><path id="path10" d="M118 168v-13.162c.418-1.61.141-2.711-.412-3.301-.554-.59-1.47-.885-2.748-.885-.682 0-1.293.137-1.832.409a4.006 4.006 0 0 0-1.362 1.122 4.948 4.948 0 0 0-.831 1.64c.277.619.185 1.289.185 2.007V168h-6v-29h6v10.53c-.264-.46.042-.899.454-1.317.411-.416.887-.77 1.427-1.057a8.203 8.203 0 0 1 1.789-.69 7.954 7.954 0 0 1 2.045-.259c2.158 0 3.912.597 5.261 1.79 1.349 1.195 2.024 2.857 2.024 4.985V168Z"/><path id="path12" d="M129 178v-31h5.252l.042 2.165c1.261-2.109 3.179-3.165 5.757-3.165 1.287 0 2.485.26 3.592.779a7.913 7.913 0 0 1 2.836 2.255c.784.982 1.401 2.183 1.848 3.599.448 1.416.673 3.021.673 4.812 0 1.62-.189 3.101-.567 4.445-.378 1.344-.932 2.508-1.66 3.49a7.554 7.554 0 0 1-2.669 2.277c-1.05.534-2.248.802-3.592.802-2.928 0-4.973-1.113-6.512-3.339V178Zm9.748-14.351c3.137 0 4.707-2.198 4.707-6.591 0-1.908-.435-3.462-1.303-4.661-.869-1.199-1.99-1.8-3.362-1.8-1.316 0-2.415.565-3.298 1.691-.882 1.128-1.323 2.602-1.323 4.424-.001 4.624 1.525 6.937 4.579 6.937z"/><path id="path14" d="M153 144v-5h5v5zm0 24v-21h5v21z"/><path id="path16" d="M168 158c-.37 2.03.092 3.289.931 4.224.838.934 1.939 1.401 3.305 1.401.909 0 1.712-.204 2.409-.615.695-.7 1.143-1.273 1.343-2.01h5.714c-.655 2.443-1.791 4.098-3.413 5.259-1.62 1.161-3.553 1.741-5.799 1.741-6.993 0-10.49-3.794-10.49-11.382 0-1.614.228-3.072.683-4.374.454-1.302 1.115-2.421 1.983-3.356.867-.934 1.925-1.649 3.176-2.145 1.251-.495 2.688-.743 4.308-.743 3.241 0 5.692 1.034 7.356 3.101 1.663 1.622 2.494 4.736 2.494 8.899h-14.455zm8.287-3.039c-.028-.765-.164-1.437-.406-2.018a4.208 4.208 0 0 0-.959-1.444 3.84 3.84 0 0 0-1.365-.85 4.645 4.645 0 0 0-1.577-.275c-1.11 0-2.068.403-2.878 1.211-.811.845-1.274 1.971-1.387 3.415h8.572z"/><path id="path18" d="M197 154h5v5.663c0 1.101-.163 2.153-.489 3.153a7.39 7.39 0 0 1-1.53 2.667c-.694.775-1.572 1.389-2.635 1.84-1.062.451-2.33.677-3.804.677-1.53 0-2.834-.225-3.909-.677-1.077-.451-1.963-1.058-2.656-1.82a6.904 6.904 0 0 1-1.509-2.666 10.86 10.86 0 0 1-.468-3.217V141h5v6h12v4h-12v8.071c.44 1.326.688 2.348 1.184 3.067.496.72 1.31 1.08 2.444 1.08 1.105 0 1.919-.352 2.443-1.058.667-.705.929-1.706.929-3.005z"/><path id="path20" d="M219 153c.017-1.082-.341-1.783-.915-2.222-.575-.438-1.45-.658-2.627-.658-1.122 0-1.969.135-2.543.403-.576.27-.862.729-.862 1.38 0 .567.287 1.019.862 1.359.574.341 1.408.666 2.501.977 1.793.509 3.305.941 4.54 1.296 1.233.353 2.221.771 2.963 1.253.742.481 1.276 1.084 1.598 1.805.322.722.483 1.693.483 2.91 0 1.868-.771 3.418-2.312 4.65-1.541 1.232-3.825 1.847-6.852 1.847-1.486 0-2.831-.17-4.035-.51-1.205-.339-2.235-.828-3.089-1.464-.856-.639-1.514-1.402-1.976-2.294-.462-.629-.708-1.628-.736-2.732h5.633c0 .73.384 1.493 1.156 2.032.77.538 1.771.806 3.006.806 1.036 0 1.927-.162 2.669-.488.743-.325 1.114-.829 1.114-1.508 0-.764-.273-1.316-.82-1.656-.546-.341-1.38-.638-2.501-.892-2.018-.452-3.644-.926-4.876-1.422-1.233-.495-2.193-1.041-2.88-1.635-.687-.596-1.149-1.247-1.386-1.955-.239-.707-.357-1.5-.357-2.378 0-.792.16-1.543.483-2.25.322-.709.834-1.332 1.534-1.87.7-.537 1.611-.969 2.733-1.296 1.12-.325 2.493-.488 4.119-.488 2.97 0 5.142.608 6.516 1.826 1.373 1.337 2.129 3.022 2.27 5.174z"/><path id="path22" d="M247 160c-.181 1.106-.523 2.211-1.068 3.201a8.946 8.946 0 0 1-2.076 2.548 9.529 9.529 0 0 1-2.874 1.656c-1.077.396-2.244.595-3.502.595-1.399 0-2.678-.233-3.838-.7a7.889 7.889 0 0 1-2.999-2.124c-.84-.948-1.489-2.123-1.951-3.524-.461-1.402-.692-3.038-.692-4.906 0-1.869.231-3.483.692-4.842.462-1.359 1.111-2.47 1.951-3.334.838-.863 1.852-1.507 3.041-1.933 1.188-.425 2.509-.637 3.964-.637 1.342 0 2.565.185 3.669.552a8.583 8.583 0 0 1 2.895 1.614 7.742 7.742 0 0 1 1.949 2.548c.476.965.755 2.069.839 3.286h-5.494c-.14-1.048-.566-1.89-1.279-2.5-.713-.609-1.588-.914-2.621-.914-.587 0-1.133.1-1.636.298-.504.198-.944.531-1.321.998-.378.468-.679 1.09-.903 1.87-.224.778-.335 1.734-.335 2.866 0 2.294.405 3.993 1.217 5.097.81 1.104 1.747 1.656 2.81 1.656 1.062 0 1.971-.297 2.726-.891.755-.484 1.189-1.347 1.3-2.48z"/><path id="path24" d="M265 168v-13.162c.418-1.61.141-2.711-.412-3.301-.554-.59-1.47-.885-2.748-.885-.682 0-1.293.137-1.832.409a4.006 4.006 0 0 0-1.362 1.122 4.948 4.948 0 0 0-.831 1.64c.277.619.185 1.289.185 2.007V168h-6v-29h6v10.53c-.264-.46.042-.899.454-1.317.411-.416.887-.77 1.427-1.057a8.203 8.203 0 0 1 1.789-.69 7.954 7.954 0 0 1 2.045-.259c2.158 0 3.912.597 5.261 1.79 1.349 1.195 2.024 2.857 2.024 4.985V168Z"/><path id="path26" d="M288 153c.017-1.082-.341-1.783-.915-2.222-.575-.438-1.45-.658-2.627-.658-1.122 0-1.969.135-2.543.403-.576.27-.862.729-.862 1.38 0 .567.287 1.019.862 1.359.574.341 1.408.666 2.501.977 1.793.509 3.305.941 4.54 1.296 1.233.353 2.221.771 2.963 1.253.742.481 1.276 1.084 1.598 1.805.322.722.483 1.693.483 2.91 0 1.868-.771 3.418-2.312 4.65-1.541 1.232-3.825 1.847-6.852 1.847-1.486 0-2.831-.17-4.035-.51-1.205-.339-2.235-.828-3.089-1.464-.856-.639-1.514-1.402-1.976-2.294-.462-.629-.708-1.628-.736-2.732h5.633c0 .73.384 1.493 1.156 2.032.77.538 1.771.806 3.006.806 1.036 0 1.927-.162 2.669-.488.743-.325 1.114-.829 1.114-1.508 0-.764-.273-1.316-.82-1.656-.546-.341-1.38-.638-2.501-.892-2.018-.452-3.644-.926-4.876-1.422-1.233-.495-2.193-1.041-2.88-1.635-.687-.596-1.149-1.247-1.386-1.955-.239-.707-.357-1.5-.357-2.378 0-.792.16-1.543.483-2.25.322-.709.834-1.332 1.534-1.87.7-.537 1.611-.969 2.733-1.296 1.12-.325 2.493-.488 4.119-.488 2.97 0 5.142.608 6.516 1.826 1.373 1.337 2.129 3.022 2.27 5.174z"/><path id="path28" d="M311 154h5v5.663c0 1.101-.163 2.153-.489 3.153a7.36 7.36 0 0 1-1.53 2.667c-.694.775-1.573 1.389-2.635 1.84-1.063.451-2.33.677-3.804.677-1.53 0-2.833-.225-3.909-.677-1.077-.452-1.963-1.058-2.657-1.82a6.902 6.902 0 0 1-1.508-2.666 10.86 10.86 0 0 1-.468-3.217V141h5v6h12v4h-12v8.071c.439 1.326.687 2.348 1.183 3.067.495.72 1.31 1.08 2.444 1.08 1.105 0 1.919-.352 2.444-1.058.668-.705.929-1.706.929-3.005z"/><path id="path30" d="M319 168v-21h5v2.137c.585-.726 1.056-1.292 1.547-1.699a6.03 6.03 0 0 1 1.516-.938 5.671 5.671 0 0 1 1.579-.413c.533-.058 1.08-.087 1.642-.087H331v5.794a8.912 8.912 0 0 0-1.516-.131c-3.815 0-5.484 1.729-5.484 5.185V168Z"/><path id="path32" d="M347 167c-.373-.088-.488-.712-.545-1.42-.659.736-1.533 1.324-2.622 1.762-1.089.439-2.35.658-3.782.658-2.437 0-4.221-.53-5.353-1.592-1.132-1.062-1.698-2.443-1.698-4.141 0-1.5.244-2.696.731-3.589a5.411 5.411 0 0 1 2.021-2.102c.859-.511 1.884-.885 3.073-1.126a66.915 66.915 0 0 1 3.891-.659c1.403-.198 2.35-.459 2.836-.785.487-.325.731-.857.731-1.593 0-.679-.321-1.211-.967-1.593-.645-.382-1.512-.573-2.6-.573-1.291 0-2.215.284-2.773.85-.56.219-.912.969-1.053 1.903h-5.203c.029-.729.208-1.72.537-2.626a5.692 5.692 0 0 1 1.591-2.336c.732-.651 1.683-1.153 2.859-1.508 1.175-.352 2.608-.53 4.3-.53 1.661 0 3.073.185 4.233.552 1.161.369 2.092.899 2.794 1.592.701.695 1.211 1.558 1.526 2.591.316 1.034.473 2.202.473 3.505V167h-5.201zm-.588-9.787c-.286.283-.702.511-1.247.679-.544.17-1.333.354-2.364.553-1.605.312-2.707.708-3.31 1.189-.601.482-.903 1.175-.903 2.081 0 1.557.903 2.335 2.709 2.335.715 0 1.381-.12 1.998-.361a4.99 4.99 0 0 0 1.591-.976c.445-.41.802-.891 1.076-1.444a3.936 3.936 0 0 0 .407-1.763z"/><path id="path34" d="M364 163c.348.306.547.328.744.341.198.015.397.021.595.021 1.615 0 2.887-.455 3.822-1.365.934-.91 1.401-2.074 1.401-3.491 0-.952-.148-1.755-.446-2.405-.297-.651-.706-1.171-1.231-1.562-.525-.39-1.16-.678-1.91-.866-1.241-.188-2.069-.296-2.975-.325v-3.555c1.368-.028 2.083-.137 2.635-.324.552-.189.99-.441 1.316-.76a2.54 2.54 0 0 0 .68-1.127c.128-.433.19-.909.19-1.43 0-1.359-.367-2.304-1.103-2.84-.736-.534-1.6-.801-2.59-.801-1.019 0-1.889.288-2.612.866-1.155.579-1.516 1.503-1.516 2.775V167h-5v-21.152c0-1.155.19-2.217.573-3.186.382-.968.962-1.8 1.741-2.493.777-.694 1.747-1.228 2.909-1.604 1.16-.375 2.533-.565 4.118-.565 1.557 0 2.901.19 4.034.565 1.132.376 2.074.896 2.824 1.56a6.026 6.026 0 0 1 1.656 2.385c.355.924.531 1.937.531 3.035 0 .809-.079 1.503-.234 2.08-.155.578-.367 1.07-.636 1.474a4.94 4.94 0 0 1-.913 1.04c-.34.289-.693.55-1.062.781.905.404 1.649.874 2.23 1.408a6.59 6.59 0 0 1 1.358 1.712c.325.608.553 1.265.68 1.973.128.708.191 1.438.191 2.189 0 1.532-.221 2.898-.659 4.096-.439 1.2-1.069 2.227-1.889 3.079-.82.854-1.812 1.503-2.972 1.952-1.16.448-2.462.671-3.906.671-1.229 0-2.037-.058-2.574-.173z"/><path id="path36" d="M387 158c-.372 2.03.09 3.289.929 4.224.838.934 1.94 1.401 3.305 1.401.909 0 1.712-.204 2.41-.615.695-.7 1.143-1.273 1.343-2.01h5.714c-.655 2.443-1.791 4.098-3.412 5.259-1.621 1.161-3.554 1.741-5.8 1.741-6.993 0-10.489-3.794-10.489-11.382 0-1.614.228-3.072.683-4.374.454-1.302 1.115-2.421 1.982-3.356.867-.934 1.925-1.649 3.177-2.145 1.25-.495 2.687-.743 4.308-.743 3.241 0 5.692 1.034 7.355 3.101 1.664 1.622 2.495 4.736 2.495 8.899h-14.457zm8.285-3.039c-.028-.765-.164-1.437-.405-2.018a4.235 4.235 0 0 0-.958-1.444 3.853 3.853 0 0 0-1.366-.85 4.647 4.647 0 0 0-1.578-.275c-1.109 0-2.068.403-2.878 1.211-.812.845-1.274 1.971-1.386 3.415h8.571z"/><path id="path38" d="M418 168v-20h-6v-3.977c1.185 0 2.177-.102 2.978-.306.798-.203 1.453-.517 1.963-.939a4.01 4.01 0 0 0 1.158-1.573c.263-.626.435-1.361.517-2.205H423v29z"/><path id="path40" d="M434 151c1.367-.434 2.326-.541 3.069-.752.742-.212 1.317-.493 1.723-.845.406-.353.686-.762.841-1.228.153-.466.231-.952.231-1.459 0-1.411-.288-2.481-.861-3.216-.575-.734-1.493-1.101-2.754-1.101-1.065 0-1.949.403-2.648 1.207-.701.792-1.051 1.928-1.051 3.394h-5.087c0-1.342.217-2.569.652-3.669a8.133 8.133 0 0 1 1.848-2.835 8.394 8.394 0 0 1 2.858-1.84c1.106-.437 2.319-.656 3.636-.656 1.205 0 2.333.184 3.384.55a8.39 8.39 0 0 1 2.754 1.567 7.334 7.334 0 0 1 1.849 2.432c.447.946.673 1.983.673 3.11 0 1.27-.273 2.476-.82 3.619a6.14 6.14 0 0 1-2.459 2.686c1.346.564 2.376 1.417 3.09 2.56.715 1.142 1.072 2.603 1.072 4.379 0 1.411-.238 2.68-.715 3.808a7.887 7.887 0 0 1-2.018 2.856c-.868.776-1.906 1.374-3.11 1.797-1.205.424-2.536.636-3.993.636-2.915 0-5.171-.819-6.768-2.454-1.597-1.411-2.396-3.669-2.396-6.546h5.255c0 1.412.35 2.604 1.05 3.351.7.749 1.738 1.122 3.111 1.122 1.148 0 2.101-.402 2.858-1.207.758-.803 1.135-1.952 1.135-3.448 0-1.635-.469-2.777-1.407-3.427-1.128-.648-2.733-.973-5.002-.973z"/><path id="path42" d="M464 158c-.372 2.03.09 3.289.929 4.224.838.934 1.94 1.401 3.305 1.401.909 0 1.712-.204 2.41-.615.695-.7 1.143-1.273 1.343-2.01h5.714c-.655 2.443-1.791 4.098-3.412 5.259-1.621 1.161-3.554 1.741-5.8 1.741-6.993 0-10.489-3.794-10.489-11.382 0-1.614.228-3.072.683-4.374.454-1.302 1.115-2.421 1.982-3.356.867-.934 1.925-1.649 3.177-2.145 1.25-.495 2.687-.743 4.308-.743 3.241 0 5.692 1.034 7.355 3.101 1.664 1.622 2.495 4.736 2.495 8.899h-14.457zm8.285-3.039c-.028-.765-.164-1.437-.405-2.018a4.235 4.235 0 0 0-.958-1.444 3.853 3.853 0 0 0-1.366-.85 4.647 4.647 0 0 0-1.578-.275c-1.109 0-2.068.403-2.878 1.211-.812.845-1.274 1.971-1.386 3.415h8.571z"/><path id="path44" d="m502 167 .037-2.766c-.673 1.185-1.754 2.11-3.24 2.771-1.486.662-3.198.995-5.133.995-1.936 0-3.681-.417-5.238-1.249a12.703 12.703 0 0 1-3.997-3.342c-1.108-1.397-1.956-3.005-2.546-4.823a18.237 18.237 0 0 1-.883-5.649c0-2.059.294-3.999.883-5.818.59-1.819 1.459-3.407 2.608-4.761 1.15-1.354 2.58-2.418 4.293-3.194 1.71-.775 3.701-1.164 5.973-1.164 1.655 0 3.204.24 4.649.719 1.444.48 2.707 1.142 3.786 1.989a10.166 10.166 0 0 1 2.609 3.025c.658 1.566 1.044 2.857 1.157 4.267h-5.89c-.085-1.043-.309-1.656-.673-2.235a5.631 5.631 0 0 0-1.389-1.502 6.94 6.94 0 0 0-1.957-1.015 7.044 7.044 0 0 0-2.293-.381c-2.355 0-4.242.882-5.659 2.645-1.416 1.763-2.124 4.324-2.124 7.68 0 1.158.146 2.32.441 3.491a10.115 10.115 0 0 0 1.389 3.174 7.574 7.574 0 0 0 2.419 2.306c.981.593 2.145.888 3.492.888.953 0 1.844-.169 2.672-.507a6.848 6.848 0 0 0 2.167-1.397 6.582 6.582 0 0 0 1.451-2.052c.351-.395.526-1.22.526-2.095H495v-5h12v15z"/></g><style>@media (prefers-color-scheme:dark){.a{fill:#f0f0f0}}</style><path id="path48" fill="none" stroke="#000" stroke-miterlimit="10" stroke-width="3" d="M0 111.5h495.563" class="a"/><g id="g64" transform="translate(-18.977 -16.586)"><path id="path50" d="M18.977 120.586v-102h75v18h-54v22h49v18h-49v26h56v18z"/><path id="path52" d="M100.977 35.586v-19h20v19H101Zm0 84.414V44.586h20V120Z"/><path id="path54" d="M177.977 119.586V74.562c.05-5.794-.916-9.706-2.847-11.74-1.932-2.033-5.236-3.05-9.91-3.05-10.111 0-15.243 5.744-15.243 17.23v42.584h-20v-75h19V55.96c2.266-4.269 5.365-7.495 9.229-9.682C162.068 44.094 167.05 43 173.148 43c3.557 0 6.861.534 9.911 1.6 3.049 1.068 5.665 2.67 7.851 4.804 2.185 2.134 3.912 4.752 5.184 7.852 1.247 3.102 1.883 6.685 1.883 10.75v51.58z"/><path id="path56" d="M267.977 120.586v-45h-40v45h-21v-102h21v39h40v-39h21v102Z"/><path id="path58" d="M343.977 119.586c-.207-1.5-.619-3.737-.823-6.279-2.362 2.645-5.488 4.755-9.384 6.33-3.9 1.575-8.411 2.363-13.54 2.363-8.717 0-15.102-1.906-19.153-5.718-4.052-3.813-6.077-8.77-6.077-14.869 0-5.39.87-9.685 2.616-12.889 1.742-3.203 4.154-5.718 7.23-7.548 3.076-1.83 6.743-3.177 11-4.042 4.254-.863 8.897-1.652 13.923-2.365 5.023-.71 8.408-1.65 10.153-2.82 1.744-1.168 2.616-3.075 2.616-5.72 0-2.44-1.153-4.346-3.46-5.719-2.309-1.372-5.412-2.058-9.308-2.058-4.616 0-7.923 1.018-9.923 3.05-2 2.236-3.257 4.929-3.769 8.284h-18.615c.101-4.064.743-7.621 1.923-10.877 1.178-3.252 3.077-6.047 5.691-8.388 2.617-2.337 6.024-4.141 10.231-5.414 4.204-1.27 9.332-1.907 15.385-1.907 5.946 0 10.999.663 15.154 1.983 4.154 1.322 7.484 3.228 10 5.718 2.512 2.492 4.331 5.593 5.46 9.303 1.104 3.713 1.67 7.907 1.67 12.583v46.999h-18.593zm-.978-36.323c-1.026 1.018-2.512 1.83-4.461 2.44-1.949.61-4.768 1.273-8.461 1.983-5.746 1.12-9.693 2.543-11.846 4.27-2.154 1.73-3.23 4.22-3.23 7.473 0 5.592 3.23 8.388 9.692 8.388 2.563 0 4.947-.433 7.153-1.297 2.204-.862 4.102-2.032 5.692-3.508a17.615 17.615 0 0 0 3.846-5.185 14.151 14.151 0 0 0 1.461-6.33z"/><path id="path60" d="M419.977 119.586v-10.089C415 117.832 407.173 122 396.634 122c-3.787 0-7.241-.662-10.361-1.981-3.123-1.32-5.809-3.202-8.059-5.643-2.252-2.439-4.017-5.336-5.295-8.691-1.303-3.354-1.942-7.115-1.942-11.283V44.586h20v46.767c-.021 9.354 4.224 14.028 12.719 14.028 5.116 0 8.979-1.601 11.589-4.803 2.388-3.202 3.692-7.293 3.692-12.274V44.587h20v75z"/><path id="path62" d="M492.977 67.586c-.706-3.538-2.028-6.105-4.165-7.58-2.137-1.473-5.496-2.21-10.075-2.21-3.767 0-6.668.483-8.703 1.448-2.036.968-3.053 2.568-3.053 4.804 0 2.238 1.017 3.941 3.053 5.109 2.035 1.17 5.089 2.313 9.161 3.43a378.878 378.878 0 0 0 12.211 3.28c3.867.968 7.276 2.008 10.228 3.126 3.97 1.628 7.022 3.84 9.16 6.634 2.137 2.798 3.206 6.634 3.206 11.514 0 7.831-2.774 13.933-8.32 18.302-5.549 4.373-13.715 6.557-24.502 6.557-11.602 0-20.481-2.439-26.638-7.32-6.159-5.216-9.337-11.469-9.54-19.094h20.456c0 3.895 1.374 6.64 4.121 8.572 2.748 1.932 6.565 2.896 11.451 2.896 3.56 0 6.663-.584 9.311-1.754 2.645-1.167 3.97-3.176 3.97-6.024 0-2.641-1.198-4.522-3.588-5.642-2.392-1.118-5.217-2.083-8.472-2.898-6.311-1.524-11.399-2.897-15.266-4.118-3.869-1.22-7.125-2.692-9.77-4.422-3.564-2.236-6.03-4.778-7.404-7.626-1.374-2.845-2.06-5.948-2.06-9.303 0-3.15.559-6.1 1.68-8.845 1.118-2.745 2.95-5.109 5.496-7.092 2.542-1.983 5.824-3.532 9.845-4.652C468.789 43.56 473.648 43 479.348 43c10.889 0 18.904 2.085 24.044 6.253 5.137 4.05 7.962 10.2 8.472 18.333z"/></g><path id="path66" d="M88 1h2v2h-2z"/></svg>